<?xml version="1.0" encoding="UTF-8"?>
<svg version="1.1" xmlns="http://www.w3.org/2000/svg" width="180" height="180">
<path d="M0 0 C59.4 0 118.8 0 180 0 C180 59.4 180 118.8 180 180 C120.6 180 61.2 180 0 180 C0 120.6 0 61.2 0 0 Z " fill="#020202" transform="translate(0,0)"/>
<path d="M0 0 C3.03238365 0.93304112 4.41230032 2.34976334 6.4375 4.75 C7.0975 3.76 7.7575 2.77 8.4375 1.75 C11.4375 2.75 11.4375 2.75 12.4375 4.75 C12.53955512 6.88336322 12.57593097 9.01996979 12.58276367 11.15576172 C12.58612228 11.8128714 12.5894809 12.46998108 12.59294128 13.14700317 C12.60245896 15.32458372 12.60439489 17.50208743 12.60546875 19.6796875 C12.60868108 21.19182365 12.61204514 22.70395948 12.61555481 24.21609497 C12.62154834 27.38869955 12.62339451 30.56127688 12.62280273 33.73388672 C12.62270117 37.79826383 12.6363463 41.86246601 12.65357494 45.92680168 C12.66469734 49.05120648 12.66672186 52.17556904 12.66619301 55.29999161 C12.66737304 56.79829638 12.6717961 58.29660224 12.67952538 59.79488754 C12.68932896 61.89186568 12.68644583 63.9884649 12.68041992 66.08544922 C12.68184494 67.27854706 12.68326996 68.4716449 12.68473816 69.70089722 C12.4476136 72.62527242 11.96963573 74.28651395 10.4375 76.75 C9.7775 76.75 9.1175 76.75 8.4375 76.75 C7.7775 75.43 7.1175 74.11 6.4375 72.75 C5.6021875 73.9875 5.6021875 73.9875 4.75 75.25 C2.4375 77.75 2.4375 77.75 0 78.5625 C-3.44068408 77.47155139 -4.73685678 75.58020706 -6.42578125 72.46875 C-11.0753427 61.34814941 -10.86456606 49.41418055 -10.9375 37.5625 C-10.94544586 36.88026367 -10.95339172 36.19802734 -10.96157837 35.49511719 C-11.06325911 24.10413968 -10.68019531 11.73943658 -3.88671875 2.08984375 C-2.5625 0.75 -2.5625 0.75 0 0 Z " fill="#F5F5F5" transform="translate(120.5625,72.25)"/>
<path d="M0 0 C2.5 0.4375 2.5 0.4375 4.3125 2.4375 C4.704375 3.0975 5.09625 3.7575 5.5 4.4375 C6.16 3.4475 6.82 2.4575 7.5 1.4375 C8.49 1.4375 9.48 1.4375 10.5 1.4375 C11.94498338 4.32746676 11.62731121 6.82971212 11.62939453 10.05859375 C11.63114685 10.73842316 11.63289917 11.41825256 11.63470459 12.11868286 C11.63911375 14.37081437 11.63618841 16.62286766 11.6328125 18.875 C11.63348581 20.43676773 11.63445606 21.99853536 11.63571167 23.56030273 C11.63718737 26.83545936 11.63503817 30.11058873 11.63037109 33.38574219 C11.62467388 37.58927072 11.62795356 41.79273541 11.63394356 45.9962616 C11.6375526 49.22180667 11.636409 52.44733655 11.63381577 55.67288208 C11.63314745 57.2230734 11.63397161 58.77326609 11.63629532 60.32345581 C11.63882745 62.48780995 11.63497332 64.65205989 11.62939453 66.81640625 C11.62859894 68.0494751 11.62780334 69.28254395 11.62698364 70.55297852 C11.5 73.4375 11.5 73.4375 10.5 75.4375 C9.51 75.4375 8.52 75.4375 7.5 75.4375 C6.84 74.7775 6.18 74.1175 5.5 73.4375 C4.943125 74.0975 4.38625 74.7575 3.8125 75.4375 C1.5 77.4375 1.5 77.4375 -1.25 77.6875 C-1.9925 77.605 -2.735 77.5225 -3.5 77.4375 C-7.72116188 71.17853583 -8.99617865 64.76503714 -10.5 57.4375 C-10.67418457 56.82511475 -10.84836914 56.21272949 -11.02783203 55.58178711 C-14.21078507 41.12683542 -13.12473556 18.5872587 -6.59765625 5.13671875 C-4.73112052 2.24724174 -3.45421447 0.60448753 0 0 Z " fill="#F3F3F3" transform="translate(147.5,72.5625)"/>
<path d="M0 0 C3.38957077 0.67791415 4.39694091 1.76602319 6.5 4.5 C11.55662028 13.64081359 11.67700691 24.34346736 11.75 34.5625 C11.76389771 35.79468262 11.76389771 35.79468262 11.77807617 37.05175781 C11.77191284 38.21916504 11.77191284 38.21916504 11.765625 39.41015625 C11.76336914 40.10246338 11.76111328 40.79477051 11.75878906 41.50805664 C11.5 43.5 11.5 43.5 9.5 47.5 C4.55 47.5 -0.4 47.5 -5.5 47.5 C-5.21125 49.2325 -4.9225 50.965 -4.625 52.75 C-4.38136719 54.21179688 -4.38136719 54.21179688 -4.1328125 55.703125 C-3.55144152 58.27264117 -2.79159735 60.22071056 -1.5 62.5 C0.42309422 62.46044102 0.42309422 62.46044102 2.5 61.5 C4.28379415 58.51647106 4.28379415 58.51647106 5.5 55.5 C6.82 56.16 8.14 56.82 9.5 57.5 C10.01554714 64.48852791 9.46146059 69.60118278 5.5 75.5 C3.5 77.5 3.5 77.5 0.625 77.875 C-3.26369666 77.4083564 -4.02518661 76.45782526 -6.5 73.5 C-7.73046875 70.84375 -7.73046875 70.84375 -8.6875 68 C-9.01105469 67.0615625 -9.33460937 66.123125 -9.66796875 65.15625 C-9.94253906 64.2796875 -10.21710938 63.403125 -10.5 62.5 C-10.676521 61.95311523 -10.85304199 61.40623047 -11.03491211 60.84277344 C-12.19355805 55.0063606 -11.80852208 48.77923805 -11.85009766 42.84179688 C-11.86649414 41.13527636 -11.89356223 39.4288197 -11.93212891 37.72265625 C-12.19457942 26.01964572 -12.44205636 11.60165766 -4.48583984 2.09277344 C-2.5 0.5 -2.5 0.5 0 0 Z " fill="#F1F1F1" transform="translate(95.5,72.5)"/>
<path d="M0 0 C3 1 3 1 4 3 C4.09275395 5.41094362 4.12584719 7.79268319 4.11352539 10.20361328 C4.11367142 10.9451767 4.11381744 11.68674011 4.1139679 12.45077515 C4.11327 14.90731713 4.10548334 17.36378373 4.09765625 19.8203125 C4.09579163 21.5213924 4.09436794 23.22247284 4.09336853 24.92355347 C4.08954678 29.40506467 4.0797194 33.88654357 4.06866455 38.36804199 C4.05844308 42.9393673 4.05386933 47.51069781 4.04882812 52.08203125 C4.03809685 61.05470171 4.02102451 70.02734817 4 79 C5.14339844 78.98839844 6.28679688 78.97679687 7.46484375 78.96484375 C8.95572754 78.95546712 10.44661309 78.94636679 11.9375 78.9375 C12.69224609 78.92912109 13.44699219 78.92074219 14.22460938 78.91210938 C16.14994313 78.90347559 18.07535581 78.94775667 20 79 C20.495 79.495 20.495 79.495 21 80 C21.00808685 79.2947821 21.01617371 78.58956421 21.02450562 77.86297607 C21.10249207 71.21237175 21.18979487 64.56196235 21.28752708 57.91161728 C21.33744294 54.49271441 21.38377312 51.07384172 21.421875 47.65478516 C21.46585076 43.72280523 21.52548319 39.7911375 21.5859375 35.859375 C21.59748871 34.63321472 21.60903992 33.40705444 21.62094116 32.14373779 C21.64081085 31.00285706 21.66068054 29.86197632 21.68115234 28.68652344 C21.69447601 27.68280701 21.70779968 26.67909058 21.7215271 25.6449585 C22.00375912 22.96429562 22.63066255 21.29779216 24 19 C24.66 19 25.32 19 26 19 C27.46041228 21.92082455 27.11928796 24.48301369 27.11352539 27.74462891 C27.11367142 28.43742447 27.11381744 29.13022003 27.1139679 29.8440094 C27.11327018 32.13822541 27.10548442 34.43236064 27.09765625 36.7265625 C27.09579157 38.31554113 27.0943679 39.90452034 27.09336853 41.49349976 C27.08954731 45.67909325 27.07972039 49.86465213 27.06866455 54.05023193 C27.05844194 58.31994153 27.05386909 62.5896567 27.04882812 66.859375 C27.03809778 75.23959923 27.02102608 83.61979531 27 92 C25.02 92.495 25.02 92.495 23 93 C23 92.01 23 91.02 23 90 C22.34 90 21.68 90 21 90 C20.67 91.32 20.34 92.64 20 94 C16.68751813 94.02888146 13.37506833 94.04675799 10.0625 94.0625 C9.11697266 94.07087891 8.17144531 94.07925781 7.19726562 94.08789062 C5.84858398 94.09272461 5.84858398 94.09272461 4.47265625 94.09765625 C3.64000244 94.10289307 2.80734863 94.10812988 1.94946289 94.11352539 C-0 94 -0 94 -1 93 C-1.10053696 90.18024137 -1.1361571 87.38494262 -1.12939453 84.56469727 C-1.13114685 83.6801889 -1.13289917 82.79568054 -1.13470459 81.8843689 C-1.13912487 78.94502836 -1.13618425 76.00574745 -1.1328125 73.06640625 C-1.13348555 71.03238412 -1.13445558 68.99836207 -1.13571167 66.96434021 C-1.13718893 62.69456214 -1.13503341 58.42480495 -1.13037109 54.1550293 C-1.1246774 48.67241279 -1.12795036 43.18984527 -1.13394356 37.70723057 C-1.13755149 33.50460946 -1.13640945 29.30200003 -1.13381577 25.09937859 C-1.13314695 23.07749361 -1.13397333 21.05560759 -1.13629532 19.03372383 C-1.13882523 16.21068629 -1.13497624 13.38772882 -1.12939453 10.56469727 C-1.13141876 9.72254166 -1.13344299 8.88038605 -1.13552856 8.01271057 C-1.11426318 2.22852636 -1.11426318 2.22852636 0 0 Z " fill="#F1F1F1" transform="translate(4,55)"/>
<path d="M0 0 C2.625 0.4375 2.625 0.4375 4.75 2.1875 C10.60420838 12.33479452 10.77995443 24.96436568 10.79296875 36.39453125 C10.79629715 37.41931076 10.79962555 38.44409027 10.80305481 39.49992371 C10.80809192 41.65220697 10.81046414 43.80449796 10.81030273 45.95678711 C10.81250476 49.25712693 10.83073662 52.55714039 10.84960938 55.85742188 C10.85254082 57.95312386 10.85452728 60.04882743 10.85546875 62.14453125 C10.86265427 63.13201859 10.86983978 64.11950592 10.87724304 65.13691711 C10.87416641 66.05184433 10.87108978 66.96677155 10.86791992 67.90942383 C10.86934494 68.71358231 10.87076996 69.51774078 10.87223816 70.3462677 C10.625 72.4375 10.625 72.4375 8.625 75.4375 C7.14 74.9425 7.14 74.9425 5.625 74.4375 C4.67558047 71.58924141 4.48552215 69.75969275 4.45141602 66.80175781 C4.43792618 65.86358215 4.42443634 64.92540649 4.41053772 63.95880127 C4.40009933 62.9463031 4.38966095 61.93380493 4.37890625 60.890625 C4.34596005 58.74478771 4.31274854 56.59895447 4.27929688 54.453125 C4.23195025 51.07164373 4.18753115 47.69017802 4.14819336 44.30859375 C4.10834165 41.04409446 4.05682092 37.77993509 4.00390625 34.515625 C3.9954921 33.51122375 3.98707794 32.50682251 3.97840881 31.47198486 C3.8841346 26.08594664 3.39733908 21.53424904 1.625 16.4375 C0.305 16.4375 -1.015 16.4375 -2.375 16.4375 C-2.849375 17.51 -3.32375 18.5825 -3.8125 19.6875 C-4.07933594 20.29078125 -4.34617187 20.8940625 -4.62109375 21.515625 C-6.01209685 25.06160181 -6.50332645 28.26379575 -6.54858398 32.06665039 C-6.56207382 32.97761978 -6.57556366 33.88858917 -6.58946228 34.8271637 C-6.59990067 35.80330124 -6.61033905 36.77943878 -6.62109375 37.78515625 C-6.65401516 39.85482221 -6.68722707 41.92448356 -6.72070312 43.99414062 C-6.76822263 47.2552593 -6.81269616 50.51635707 -6.85180664 53.77758789 C-6.89142742 56.92613517 -6.94297633 60.07431186 -6.99609375 63.22265625 C-7.0045079 64.20081802 -7.01292206 65.1789798 -7.02159119 66.18678284 C-7.03823318 67.09460007 -7.05487518 68.0024173 -7.07202148 68.93774414 C-7.08748268 70.13543175 -7.08748268 70.13543175 -7.10325623 71.35731506 C-7.375 73.4375 -7.375 73.4375 -9.375 76.4375 C-10.365 76.1075 -11.355 75.7775 -12.375 75.4375 C-13.50302926 72.05341222 -13.50885676 69.47034005 -13.52026367 65.90234375 C-13.52362228 65.24348175 -13.5269809 64.58461975 -13.53044128 63.90579224 C-13.53993697 61.7288423 -13.54189353 59.55196936 -13.54296875 57.375 C-13.5461817 55.86189746 -13.54954581 54.34879524 -13.55305481 52.83569336 C-13.55904219 49.66486897 -13.56089505 46.49407183 -13.56030273 43.32324219 C-13.560201 39.25767454 -13.57386665 35.19228108 -13.59107494 31.12675476 C-13.60218433 28.00239253 -13.60422229 24.87807259 -13.60369301 21.75369263 C-13.60487421 20.25456134 -13.60930384 18.755429 -13.61702538 17.25631714 C-13.62680634 15.16163857 -13.62395523 13.06734075 -13.61791992 10.97265625 C-13.61934494 9.780354 -13.62076996 8.58805176 -13.62223816 7.35961914 C-13.375 4.4375 -13.375 4.4375 -11.375 1.4375 C-10.385 1.7675 -9.395 2.0975 -8.375 2.4375 C-8.045 4.0875 -7.715 5.7375 -7.375 7.4375 C-6.694375 6.261875 -6.694375 6.261875 -6 5.0625 C-3.23497171 0.59591584 -3.23497171 0.59591584 0 0 Z " fill="#E5E5E5" transform="translate(47.375,72.5625)"/>
<path d="M0 0 C4.04774476 2.94381437 5.73443407 5.8244376 6.7265625 10.73828125 C7.97357441 21.05285118 7.97357441 21.05285118 6 25 C5.01 25 4.02 25 3 25 C2.01 22.03 1.02 19.06 0 16 C-1.65 15.67 -3.3 15.34 -5 15 C-7.20914 18.31371 -7.22481553 19.3446021 -7.125 23.1875 C-7.10695313 24.08855469 -7.08890625 24.98960938 -7.0703125 25.91796875 C-7.04710938 26.60503906 -7.02390625 27.29210937 -7 28 C-6.31292969 28.32613281 -5.62585938 28.65226562 -4.91796875 28.98828125 C-4.01691406 29.42527344 -3.11585937 29.86226562 -2.1875 30.3125 C-1.29417969 30.74175781 -0.40085937 31.17101562 0.51953125 31.61328125 C4.16686111 33.65233968 5.67070437 35.01211312 7 39 C8.37108882 51.72758209 9.37851526 64.88783534 1.6875 75.875 C-1.02253576 77.68169051 -2.82703381 77.50767459 -6 77 C-9.68847381 74.06598674 -11.64926953 71.4780974 -13 67 C-13.23048431 64.05664329 -13.18929069 61.13745371 -13.125 58.1875 C-13.11597656 57.39923828 -13.10695312 56.61097656 -13.09765625 55.79882812 C-13.07422504 53.86575334 -13.03835838 51.9328362 -13 50 C-11.68 50 -10.36 50 -9 50 C-8.896875 51.2375 -8.79375 52.475 -8.6875 53.75 C-8.26198318 57.2792866 -7.51887408 59.37160966 -5 62 C-1.37671945 61.6700026 -1.37671945 61.6700026 1.3125 59.4375 C2.36053042 55.72175579 2.3691726 52.87631225 2 49 C-0.22922667 46.41409706 -2.23436832 45.92466732 -5.5 44.875 C-10.34625638 42.27879123 -11.40576537 39.13471554 -13 34 C-13.52465232 30.51913366 -13.57287652 27.14008795 -13.5 23.625 C-13.49009033 22.70614014 -13.48018066 21.78728027 -13.4699707 20.84057617 C-13.28783503 14.18054049 -12.61886451 7.7732387 -9 2 C-5.48175489 -0.34549674 -4.14224306 -0.57991403 0 0 Z " fill="#F6F6F6" transform="translate(74,73)"/>
<path d="M0 0 C2.3125 -0.3125 2.3125 -0.3125 5 0 C10.2936317 6.61703962 9.2158512 15.30033678 9.25 23.3125 C9.270625 24.51068359 9.29125 25.70886719 9.3125 26.94335938 C9.34223269 33.68896241 8.99674051 38.91196164 6 45 C5.34 45.66 4.68 46.32 4 47 C2.68 47 1.36 47 0 47 C-3.56611247 38.93748485 -4.20919896 32.66122541 -4.25 23.8125 C-4.270625 22.71357422 -4.29125 21.61464844 -4.3125 20.48242188 C-4.34847664 12.94081775 -3.38236656 6.76473312 0 0 Z " fill="#0D0D0D" transform="translate(119,88)"/>
<path d="M0 0 C3.04270025 0.94428628 3.95771096 1.9298247 5.6171875 4.68359375 C8.02540662 10.63425508 7.39105959 17.19637861 7.3125 23.5 C7.31572266 24.79292969 7.31894531 26.08585937 7.32226562 27.41796875 C7.2413091 41.73991404 7.2413091 41.73991404 3.625 47 C2 48 2 48 -0.0625 47.875 C-2 47 -2 47 -4 44 C-5.34517377 37.60828259 -5.18366291 31.13270237 -5.1875 24.625 C-5.19974609 23.53960937 -5.21199219 22.45421875 -5.22460938 21.3359375 C-5.25330312 5.4969885 -5.25330312 5.4969885 -1.42651367 1.25634766 C-0.95576416 0.84175293 -0.48501465 0.4271582 0 0 Z " fill="#050505" transform="translate(147,87)"/>
<path d="M0 0 C1.79487005 0.0643113 3.58738778 0.20139986 5.375 0.375 C6.35210937 0.46523438 7.32921875 0.55546875 8.3359375 0.6484375 C11 1 11 1 14 2 C14.05070815 8.33541445 14.08573696 14.67077657 14.10986328 21.00634766 C14.1199211 23.16164099 14.13356899 25.31692068 14.15087891 27.47216797 C14.17513662 30.57002124 14.18648532 33.66769409 14.1953125 36.765625 C14.20563507 37.72929993 14.21595764 38.69297485 14.22659302 39.68585205 C14.22674408 40.58648376 14.22689514 41.48711548 14.22705078 42.41503906 C14.231492 43.20557678 14.23593323 43.9961145 14.24050903 44.81060791 C13.97196847 47.25517547 13.21882157 48.88156035 12 51 C11.34 51 10.68 51 10 51 C8.52094762 48.04189524 8.87809097 45.0452845 8.90234375 41.8046875 C8.9037587 41.09724396 8.90517365 40.38980042 8.90663147 39.66091919 C8.912234 37.39890331 8.92478682 35.13698602 8.9375 32.875 C8.94251468 31.34244935 8.94707764 29.80989714 8.95117188 28.27734375 C8.96220423 24.51819112 8.97947048 20.75911228 9 17 C8.04287109 16.90912109 8.04287109 16.90912109 7.06640625 16.81640625 C6.24011719 16.73261719 5.41382813 16.64882813 4.5625 16.5625 C3.73878906 16.48128906 2.91507813 16.40007813 2.06640625 16.31640625 C0 16 0 16 -1 15 C-1.09909302 12.66839945 -1.12970504 10.33370058 -1.125 8 C-1.12757813 6.72125 -1.13015625 5.4425 -1.1328125 4.125 C-1 1 -1 1 0 0 Z " fill="#19BE8D" transform="translate(165,21)"/>
<path d="M0 0 C2.35694954 0.09031574 4.71153582 0.24688128 7.0625 0.4375 C8.35285156 0.53933594 9.64320313 0.64117187 10.97265625 0.74609375 C12.47119141 0.87177734 12.47119141 0.87177734 14 1 C14.05064837 7.49614132 14.0857117 13.99223185 14.10986328 20.48852539 C14.11993006 22.69915673 14.13358448 24.90977472 14.15087891 27.12036133 C14.17509738 30.29511811 14.18647627 33.46969906 14.1953125 36.64453125 C14.20563507 37.63524124 14.21595764 38.62595123 14.22659302 39.64668274 C14.22674408 40.56741074 14.22689514 41.48813873 14.22705078 42.43676758 C14.231492 43.2472908 14.23593323 44.05781403 14.24050903 44.89289856 C14 47 14 47 12 50 C11.34 50 10.68 50 10 50 C8.52094762 47.04189524 8.87809097 44.0452845 8.90234375 40.8046875 C8.9037587 40.09724396 8.90517365 39.38980042 8.90663147 38.66091919 C8.912234 36.39890331 8.92478682 34.13698602 8.9375 31.875 C8.94251468 30.34244935 8.94707764 28.80989714 8.95117188 27.27734375 C8.96220423 23.51819112 8.97947048 19.75911228 9 16 C6.03 16 3.06 16 0 16 C-1.43316898 13.13366205 -1.13200361 10.62764499 -1.125 7.4375 C-1.12757813 6.26058594 -1.13015625 5.08367188 -1.1328125 3.87109375 C-1 1 -1 1 0 0 Z " fill="#1AC291" transform="translate(157,45)"/>
<path d="M0 0 C0.66 0 1.32 0 2 0 C3.46041228 2.92082455 3.11928796 5.48301369 3.11352539 8.74462891 C3.11367142 9.43742447 3.11381744 10.13022003 3.1139679 10.8440094 C3.11327018 13.13822541 3.10548442 15.43236064 3.09765625 17.7265625 C3.09579157 19.31554113 3.0943679 20.90452034 3.09336853 22.49349976 C3.08954731 26.67909325 3.07972039 30.86465213 3.06866455 35.05023193 C3.05844194 39.31994153 3.05386909 43.5896567 3.04882812 47.859375 C3.03809778 56.23959923 3.02102608 64.61979531 3 73 C1.02 73.495 1.02 73.495 -1 74 C-1.02312484 64.49925675 -1.0409158 54.99852312 -1.05181217 45.49775791 C-1.05704069 41.08662996 -1.06413777 36.6755212 -1.07543945 32.2644043 C-1.08626944 28.01098885 -1.09227707 23.75759191 -1.09487724 19.50416374 C-1.09673129 17.87778367 -1.10035152 16.25140466 -1.10573006 14.62503242 C-1.11294198 12.35489807 -1.11399088 10.08484115 -1.11352539 7.81469727 C-1.115746 6.52008072 -1.11796661 5.22546417 -1.12025452 3.89161682 C-1 1 -1 1 0 0 Z " fill="#FCFCFC" transform="translate(28,74)"/>
<path d="M0 0 C2.62817202 0.16955948 3.729988 0.72732779 5.5859375 2.6015625 C7.49875575 5.84595589 7.51426235 8.50806671 7.6875 12.25 C7.78611328 14.14492187 7.78611328 14.14492187 7.88671875 16.078125 C7.92410156 17.04234375 7.96148437 18.0065625 8 19 C3.71 19 -0.58 19 -5 19 C-5.33860515 12.79223894 -4.57960021 7.70351973 -2 2 C-1.34 1.34 -0.68 0.68 0 0 Z " fill="#090909" transform="translate(94,87)"/>
<path d="M0 0 C0.99 0.33 1.98 0.66 3 1 C3 5.62 3 10.24 3 15 C1.68 15 0.36 15 -1 15 C-2.23184766 12.53630468 -2.16732342 10.8105499 -2.1875 8.0625 C-2.20167969 7.18722656 -2.21585938 6.31195313 -2.23046875 5.41015625 C-2 3 -2 3 0 0 Z " fill="#ECECEC" transform="translate(28,54)"/>
<path d="M0 0 C0.33 0 0.66 0 1 0 C1.05871491 4.29160791 1.09383483 8.58311058 1.125 12.875 C1.14175781 14.07898438 1.15851563 15.28296875 1.17578125 16.5234375 C1.21428168 23.60751691 0.76050885 30.12667175 -1 37 C-1.33 37 -1.66 37 -2 37 C-2 30.07 -2 23.14 -2 16 C-1.67 16 -1.34 16 -1 16 C-0.67 10.72 -0.34 5.44 0 0 Z " fill="#444444" transform="translate(83,99)"/>
</svg>
