<?xml version="1.0" encoding="UTF-8"?>
<svg version="1.1" xmlns="http://www.w3.org/2000/svg" width="417" height="179">
<path d="M0 0 C2.69082872 0.17635452 5.32851446 0.61835921 8 1 C8 1.33 8 1.66 8 2 C135.38 2.33 262.76 2.66 394 3 C394 38.31 394 73.62 394 110 C264.31 110 134.62 110 1 110 C1 8 1 8 2 6 C0.68 6 -0.64 6 -2 6 C-1.125 1.125 -1.125 1.125 0 0 Z M7 12 C7 41.37 7 70.74 7 101 C37.36 101 67.72 101 99 101 C99 71.63 99 42.26 99 12 C68.64 12 38.28 12 7 12 Z M119 49 C117.43064406 52.13871188 117.64798897 54.53855822 118 58 C119.91666667 61.08333333 119.91666667 61.08333333 123 63 C127.16245773 63.66896642 129.20040562 63.45194465 132.875 61.375 C135.50000993 58.44116537 136 56.92611327 136 53 C134.47126129 49.02527937 133.57219503 47.38146335 130 45 C124.89885234 44.33463291 122.65309056 45.45128345 119 49 Z M140 46 C140 51.61 140 57.22 140 63 C140.33 63 140.66 63 141 63 C141 58.05 141 53.1 141 48 C141.66 48 142.32 48 143 48 C143 47.34 143 46.68 143 46 C142.01 46 141.02 46 140 46 Z M153 46 C153 50.62 153 55.24 153 60 C152.01 60.495 152.01 60.495 151 61 C151.33 61.66 151.66 62.32 152 63 C152.66 63 153.32 63 154 63 C154 57.39 154 51.78 154 46 C153.67 46 153.34 46 153 46 Z M181 46 C181 51.61 181 57.22 181 63 C181.33 63 181.66 63 182 63 C182 57.39 182 51.78 182 46 C181.67 46 181.34 46 181 46 Z M195 46 C195 51.61 195 57.22 195 63 C198.3 63 201.6 63 205 63 C205 62.67 205 62.34 205 62 C202.03 62 199.06 62 196 62 C196 56.72 196 51.44 196 46 C195.67 46 195.34 46 195 46 Z M213 46 C212.32645501 47.43429001 211.66140299 48.87257057 211 50.3125 C210.62875 51.11300781 210.2575 51.91351563 209.875 52.73828125 C208.81959333 55.06213959 208.81959333 55.06213959 209 58 C209.69867188 58.04898438 210.39734375 58.09796875 211.1171875 58.1484375 C212.02726563 58.22320312 212.93734375 58.29796875 213.875 58.375 C214.77992188 58.44460937 215.68484375 58.51421875 216.6171875 58.5859375 C219 59 219 59 221 61 C220.39644592 57.14974121 219.23227397 54.13898841 217.4375 50.6875 C216.98246094 49.80449219 216.52742187 48.92148438 216.05859375 48.01171875 C215.70925781 47.34785156 215.35992187 46.68398437 215 46 C214.34 46 213.68 46 213 46 Z M226 46 C226 51.61 226 57.22 226 63 C226.33 63 226.66 63 227 63 C227.33 57.39 227.66 51.78 228 46 C227.34 46 226.68 46 226 46 Z M238 46 C238 49.63 238 53.26 238 57 C240.10814567 52.78370866 240.17700355 50.60209225 240 46 C239.34 46 238.68 46 238 46 Z M245 46 C245 51.61 245 57.22 245 63 C248.63 63 252.26 63 256 63 C256 62.67 256 62.34 256 62 C252.7 62 249.4 62 246 62 C246 59.36 246 56.72 246 54 C248.97 54 251.94 54 255 54 C255 53.67 255 53.34 255 53 C252.03 53 249.06 53 246 53 C246 50.69 246 48.38 246 46 C245.67 46 245.34 46 245 46 Z M264 46 C264 51.61 264 57.22 264 63 C264.33 63 264.66 63 265 63 C265 57.39 265 51.78 265 46 C264.67 46 264.34 46 264 46 Z M280 46 C280 51.61 280 57.22 280 63 C280.33 63 280.66 63 281 63 C281.06058594 62.02417969 281.12117188 61.04835938 281.18359375 60.04296875 C281.26738281 58.77066406 281.35117187 57.49835938 281.4375 56.1875 C281.51871094 54.92292969 281.59992188 53.65835938 281.68359375 52.35546875 C282 49 282 49 283 46 C282.01 46 281.02 46 280 46 Z M294 46 C294.33 46.66 294.66 47.32 295 48 C295.23172827 50.54615009 295.41894529 53.07396225 295.5625 55.625 C295.60568359 56.33140625 295.64886719 57.0378125 295.69335938 57.765625 C295.79944751 59.51018537 295.90022889 61.25506697 296 63 C296.33 63 296.66 63 297 63 C297 57.39 297 51.78 297 46 C296.01 46 295.02 46 294 46 Z M308 46 C307.16180842 47.62249941 306.3295884 49.24808497 305.5 50.875 C305.0359375 51.77992187 304.571875 52.68484375 304.09375 53.6171875 C302.86094411 55.86596859 302.86094411 55.86596859 303 58 C306.63 58 310.26 58 314 58 C313.31012866 54.55064331 312.81598989 52.24415149 311.4375 49.1875 C310.963125 48.135625 310.48875 47.08375 310 46 C309.34 46 308.68 46 308 46 Z M320 46 C320 51.61 320 57.22 320 63 C320.33 63 320.66 63 321 63 C321.77313045 57.0885256 322.14819277 51.8685408 321 46 C320.67 46 320.34 46 320 46 Z M335 46 C335 51.61 335 57.22 335 63 C335.33 63 335.66 63 336 63 C336 57.39 336 51.78 336 46 C335.67 46 335.34 46 335 46 Z M344 46 C343.01 47.485 343.01 47.485 342 49 C343.32 48.34 344.64 47.68 346 47 C345.34 46.67 344.68 46.34 344 46 Z M351 46 C351 51.61 351 57.22 351 63 C354.63 63 358.26 63 362 63 C362 62.67 362 62.34 362 62 C358.7 62 355.4 62 352 62 C352 59.36 352 56.72 352 54 C354.97 54 357.94 54 361 54 C361 53.67 361 53.34 361 53 C358.03 53 355.06 53 352 53 C352 50.69 352 48.38 352 46 C351.67 46 351.34 46 351 46 Z M370 46 C370 51.61 370 57.22 370 63 C370.33 63 370.66 63 371 63 C371 57.39 371 51.78 371 46 C370.67 46 370.34 46 370 46 Z M228 47 C229 49 229 49 229 49 Z M329 47 C330 49 330 49 330 49 Z M160 48 C160 51.96 160 55.92 160 60 C160.33 60 160.66 60 161 60 C161 58.02 161 56.04 161 54 C163.64 54 166.28 54 169 54 C169 53.67 169 53.34 169 53 C166.36 53 163.72 53 161 53 C161 51.35 161 49.7 161 48 C160.67 48 160.34 48 160 48 Z M190 48 C191 52 191 52 191 52 Z M144 49 C145 51 145 51 145 51 Z M283 49 C284 51 284 51 284 51 Z M293 49 C294 51 294 51 294 51 Z M230 50 C230.33 50.99 230.66 51.98 231 53 C231 52.01 231 51.02 231 50 C230.67 50 230.34 50 230 50 Z M329 50 C328.67 50.99 328.34 51.98 328 53 C328.66 53 329.32 53 330 53 C329.67 52.01 329.34 51.02 329 50 Z M284 51 C285 54 285 54 285 54 Z M292 51 C293 53 293 53 293 53 Z M146 52 C147 54 147 54 147 54 Z M338 52 C338 55 338 55 338 55 Z M232 53 C232.33 53.99 232.66 54.98 233 56 C233 55.01 233 54.02 233 53 C232.67 53 232.34 53 232 53 Z M291 53 C292 56 292 56 292 56 Z M325 53 C325.33 53.66 325.66 54.32 326 55 C326.66 54.34 327.32 53.68 328 53 C327.01 53 326.02 53 325 53 Z M285 54 C286 56 286 56 286 56 Z M148 55 C149 57 149 57 149 57 Z M326 55 C327 57 327 57 327 57 Z M234 56 C234.33 56.99 234.66 57.98 235 59 C235 58.01 235 57.02 235 56 C234.67 56 234.34 56 234 56 Z M286 56 C287 59 287 59 287 59 Z M290 56 C291 58 291 58 291 58 Z M327 57 C328 59 328 59 328 59 Z M150 58 C151 60 151 60 151 60 Z M208 58 C209 60 209 60 209 60 Z M302 58 C301.67 59.65 301.34 61.3 301 63 C301.66 62.34 302.32 61.68 303 61 C302.67 60.01 302.34 59.02 302 58 Z M314 58 C315 60 315 60 315 60 Z M236 59 C236.66 60.32 237.32 61.64 238 63 C238.33 63 238.66 63 239 63 C239 61.35 239 59.7 239 58 C237.7763932 57.9254644 237.7763932 57.9254644 236 59 Z M287 59 C287.66 60.32 288.32 61.64 289 63 C288.67 61.68 288.34 60.36 288 59 C287.67 59 287.34 59 287 59 Z M328 59 C328.33 59.99 328.66 60.98 329 62 C329 61.01 329 60.02 329 59 C328.67 59 328.34 59 328 59 Z M207 60 C208 63 208 63 208 63 Z M315 60 C315 60.99 315 61.98 315 63 C315.66 62.67 316.32 62.34 317 62 C316.34 61.34 315.68 60.68 315 60 Z M160 61 C160 61.66 160 62.32 160 63 C163.3 63 166.6 63 170 63 C170 62.67 170 62.34 170 62 C166.7 61.67 163.4 61.34 160 61 Z M221 61 C222 63 222 63 222 63 Z " fill="#111111" transform="translate(11,19)"/>
<path d="M0 0 C6.4753503 5.10179115 10.77646592 11.72573418 12.5078125 19.80859375 C13.51115787 28.87072379 12.31506473 36.37796132 7 43.875 C1.22005073 50.91577153 -5.38230284 55.89732116 -14.5625 56.94921875 C-22.05247287 57.1832804 -27.73545774 56.39632221 -34.1875 52.5625 C-35.239375 52.005625 -36.29125 51.44875 -37.375 50.875 C-44.00711897 45.4219244 -48.54477807 37.28351869 -49.50390625 28.74609375 C-49.88209833 19.19369369 -47.59350282 12.12058425 -41.5 4.75 C-30.157941 -7.2280623 -13.8334511 -9.09055358 0 0 Z M-37.8203125 9.55078125 C-42.78181303 16.60072735 -43.34726904 23.12139841 -42.1875 31.5625 C-40.3201409 38.34396199 -35.34439952 44.12539883 -29.30859375 47.6640625 C-22.54878755 50.58648377 -15.33856001 50.69820735 -8.5 48 C-2.62031495 45.04454769 1.35413911 40.96173888 4.75 35.375 C6.74412917 28.21959535 7.00307966 20.26727461 3.90625 13.37109375 C-0.35140862 6.33075111 -6.32538906 2.64583539 -14.1875 0.5625 C-23.22683741 -0.91605333 -32.1052476 2.59152759 -37.8203125 9.55078125 Z " fill="#3CC2D8" transform="translate(82.1875,49.4375)"/>
<path d="M0 0 C2.69082872 0.17635452 5.32851446 0.61835921 8 1 C8 1.33 8 1.66 8 2 C135.38 2.33 262.76 2.66 394 3 C394 3.33 394 3.66 394 4 C264.64 4 135.28 4 2 4 C2 4.66 2 5.32 2 6 C0.68 6 -0.64 6 -2 6 C-1.125 1.125 -1.125 1.125 0 0 Z " fill="#8A8A8A" transform="translate(11,19)"/>
<path d="M0 0 C0.99 0.33 1.98 0.66 3 1 C3.495 3.475 3.495 3.475 4 6 C4.66 6 5.32 6 6 6 C6.88729843 27.393751 6.88729843 27.393751 -0.0625 35.6875 C-8.03228309 43.3430172 -15.48953483 43.29340086 -26.05639648 43.15478516 C-28.03782272 43.11271135 -30.01896723 43.05769998 -32 43 C-32.66 41.35 -33.32 39.7 -34 38 C-32.94941406 37.97421875 -31.89882813 37.9484375 -30.81640625 37.921875 C-17.88373487 37.53887636 -17.88373487 37.53887636 -6.9765625 31.1328125 C-0.5852863 24.21979947 0.29396352 18.88301454 0.125 9.6875 C0.11597656 8.75615234 0.10695312 7.82480469 0.09765625 6.86523438 C0.07418263 4.5765564 0.04134729 2.28841328 0 0 Z " fill="#51C5D8" transform="translate(87,61)"/>
<path d="M0 0 C8.58 0 17.16 0 26 0 C26.33 0.66 26.66 1.32 27 2 C25.02 2 23.04 2 21 2 C20.97421875 3.12019531 20.9484375 4.24039063 20.921875 5.39453125 C20.86559365 6.86722646 20.80824632 8.3398812 20.75 9.8125 C20.72873047 10.91948242 20.72873047 10.91948242 20.70703125 12.04882812 C20.45812087 17.54974762 20.45812087 17.54974762 17.953125 20.01171875 C16.98632812 20.50091797 16.98632812 20.50091797 16 21 C15.01 20.34 14.02 19.68 13 19 C13.33 18.34 13.66 17.68 14 17 C10.04 17 6.08 17 2 17 C2 14.03 2 11.06 2 8 C1.67 11.3 1.34 14.6 1 18 C0.67 18 0.34 18 0 18 C0 12.06 0 6.12 0 0 Z " fill="#404040" transform="translate(255,64)"/>
<path d="M0 0 C1.23104155 3.68400584 0.90767252 6.91474976 0.5625 10.75 C0.46066406 11.92046875 0.35882813 13.0909375 0.25390625 14.296875 C0.17011719 15.18890625 0.08632813 16.0809375 0 17 C0.66 17 1.32 17 2 17 C2 13.37 2 9.74 2 6 C2.99 5.67 3.98 5.34 5 5 C5.02578125 5.845625 5.0515625 6.69125 5.078125 7.5625 C5.55773191 17.15463823 6.75856288 23.23480628 13.875 29.875 C17.06734694 32.49942005 19.91231445 34.08027075 24 35 C24 35.33 24 35.66 24 36 C22.02 36 20.04 36 18 36 C18.66 37.65 19.32 39.3 20 41 C30.395 40.505 30.395 40.505 41 40 C37.54859464 43.45140536 34.05079281 43.21572433 29.375 43.3125 C22.94669762 43.26611019 18.49249543 42.2636567 13 39 C11.948125 38.443125 10.89625 37.88625 9.8125 37.3125 C4.04024107 32.56642044 -0.46877354 25.37304842 -2 18 C-2.52201028 11.72759073 -2.5995889 5.84907502 0 0 Z " fill="#4AC6D7" transform="translate(35,63)"/>
<path d="M0 0 C-0.99 0.495 -0.99 0.495 -2 1 C-1.67 1.66 -1.34 2.32 -1 3 C-0.01 3.33 0.98 3.66 2 4 C4.0078125 6.58203125 4.0078125 6.58203125 6.125 9.8125 C6.82882813 10.87082031 7.53265625 11.92914063 8.2578125 13.01953125 C9.69785043 15.4830939 10.55628435 17.22341573 11 20 C10.34 20.33 9.68 20.66 9 21 C8.34 20.67 7.68 20.34 7 20 C7 19.34 7 18.68 7 18 C5.00016466 18.79117904 5.00016466 18.79117904 3 20 C2.67 20.99 2.34 21.98 2 23 C-6.16568047 23.40828402 -6.16568047 23.40828402 -10 20 C-10.99 20 -11.98 20 -13 20 C-14.67099977 19.68911632 -16.33871537 19.35919668 -18 19 C-18 18.67 -18 18.34 -18 18 C-16.741875 17.773125 -15.48375 17.54625 -14.1875 17.3125 C-11.0905589 16.52728266 -10.16691463 16.18208868 -7.9375 13.75 C-6.46013867 9.41640677 -7.59116184 6.22651449 -9 2 C-5.5647952 -0.29013653 -4.014669 -0.17842973 0 0 Z M-15 20 C-13 21 -13 21 -13 21 Z " fill="#0F0F0F" transform="translate(153,64)"/>
<path d="M0 0 C1.32 0 2.64 0 4 0 C4.33 1.98 4.66 3.96 5 6 C5.66 5.34 6.32 4.68 7 4 C8.32392972 2.98758315 9.65599167 1.98560611 11 1 C11.66 1.33 12.32 1.66 13 2 C12.03662032 5.01312368 11.03020477 8.00908291 10 11 C9.65775391 12.03253906 9.65775391 12.03253906 9.30859375 13.0859375 C8.15891708 16.19991887 7.38515423 17.76890746 4.5 19.5 C2 20 2 20 -1 19 C-1.66 20.32 -2.32 21.64 -3 23 C-3.5878125 21.3603125 -3.5878125 21.3603125 -4.1875 19.6875 C-5.88700104 15.09802616 -7.97599017 10.72195132 -10.109375 6.3203125 C-10.40328125 5.55460937 -10.6971875 4.78890625 -11 4 C-10.67 3.34 -10.34 2.68 -10 2 C-9.34 2.66 -8.68 3.32 -8 4 C-6.68252676 4.69748583 -5.35085807 5.36959957 -4 6 C-4.33 5.01 -4.66 4.02 -5 3 C-3.2984375 2.7834375 -3.2984375 2.7834375 -1.5625 2.5625 C1.80777201 2.38828522 1.80777201 2.38828522 3 1 C2.01 0.67 1.02 0.34 0 0 Z M-1 4 C0 6 0 6 0 6 Z M-2 6 C-1 8 -1 8 -1 8 Z M-3 8 C-2 11 -2 11 -2 11 Z M-4 11 C-3 13 -3 13 -3 13 Z " fill="#303030" transform="translate(305,64)"/>
<path d="M0 0 C3.96 0 7.92 0 12 0 C12 0.66 12 1.32 12 2 C11.34 2 10.68 2 10 2 C10.99 3.485 10.99 3.485 12 5 C12.39013716 6.9896995 12.73202649 8.99019869 13 11 C9.7 10.67 6.4 10.34 3 10 C3 11.98 3 13.96 3 16 C5.97 16 8.94 16 12 16 C12 16.33 12 16.66 12 17 C8.7 17 5.4 17 2 17 C2 14.03 2 11.06 2 8 C1.67 11.3 1.34 14.6 1 18 C0.34 17.01 -0.32 16.02 -1 15 C-1.99 16.485 -1.99 16.485 -3 18 C-4.36877116 16.76600937 -5.71969166 15.51219377 -7.0625 14.25 C-7.81660156 13.55390625 -8.57070313 12.8578125 -9.34765625 12.140625 C-11 10 -11 10 -10.90625 7.84375 C-9.58742803 5.16062945 -7.60054561 4.33361314 -5 3 C-4.67 3.66 -4.34 4.32 -4 5 C-0.75150023 3.27773504 -0.75150023 3.27773504 0 0 Z " fill="#4D4D4D" transform="translate(361,64)"/>
<path d="M0 0 C10.125 0 10.125 0 14 2 C14 1.34 14 0.68 14 0 C14.99 0 15.98 0 17 0 C17 5.28 17 10.56 17 16 C19.64 16 22.28 16 25 16 C25 16.33 25 16.66 25 17 C24.41992188 16.96519531 23.83984375 16.93039063 23.2421875 16.89453125 C17.990866 16.71255476 14.60488781 17.16622289 10 20 C10 17.66666667 10 15.33333333 10 13 C8.35 12.67 6.7 12.34 5 12 C5 12.66 5 13.32 5 14 C4.34 14 3.68 14 3 14 C2.67 15.32 2.34 16.64 2 18 C1.34 18 0.68 18 0 18 C0 12.06 0 6.12 0 0 Z M10 3 C11 7 11 7 11 7 Z " fill="#131313" transform="translate(191,64)"/>
<path d="M0 0 C3.62187046 0.69354966 4.77675205 1.60147503 6.9375 4.5625 C8.31499054 8.05214271 8.04864829 9.28727566 6.625 12.8125 C4.9375 15.5625 4.9375 15.5625 2.9375 16.5625 C-0.4375 16.9375 -0.4375 16.9375 -4.0625 16.5625 C-6.9861459 14.0136805 -7.91159176 12.36734394 -8.625 8.5625 C-7.67612012 3.50180729 -5.05437938 0.9283554 0 0 Z " fill="#252525" transform="translate(138.0625,64.4375)"/>
<path d="M0 0 C6.30041557 1.52737347 9.74813672 6.80140742 13.30078125 11.84765625 C17.17166524 18.47742483 17.88571239 26.61067847 16.3828125 34.05859375 C15.67903417 36.42127814 14.91436424 38.71150646 14 41 C13.67 41 13.34 41 13 41 C13.59288188 33.65835626 14.238212 26.32613141 15 19 C14.34 19 13.68 19 13 19 C12.71125 18.195625 12.4225 17.39125 12.125 16.5625 C11.26737432 13.8673532 11.26737432 13.8673532 9 13 C9.33 13.66 9.66 14.32 10 15 C10.039992 16.99960012 10.04346799 19.00047242 10 21 C9.7525 20.46375 9.505 19.9275 9.25 19.375 C5.364161 11.99190591 0.64571646 7.85648511 -6 3 C-5.38125 2.87625 -4.7625 2.7525 -4.125 2.625 C-1.80879168 2.12802644 -1.80879168 2.12802644 0 0 Z " fill="#59C7D9" transform="translate(78,48)"/>
<path d="M0 0 C0.66 1.98 1.32 3.96 2 6 C2.33 4.35 2.66 2.7 3 1 C4.8125 0.375 4.8125 0.375 7 0 C7.99 0.66 8.98 1.32 10 2 C10 2.66 10 3.32 10 4 C8.68 4 7.36 4 6 4 C7.32 4.66 8.64 5.32 10 6 C9.67 7.65 9.34 9.3 9 11 C6.57418066 11.80860645 5.15796615 12.03325603 2.625 11.5 C-0.07536577 10.81347094 -0.07536577 10.81347094 -3.0625 11.625 C-6 12 -6 12 -8.375 10.9375 C-10 9 -10 9 -10.5 6 C-10 3 -10 3 -8.375 1.125 C-5.43362303 -0.26828383 -3.21666704 -0.21931821 0 0 Z M-6 3 C-6.33 4.65 -6.66 6.3 -7 8 C-5.68 8 -4.36 8 -3 8 C-3.33 6.35 -3.66 4.7 -4 3 C-4.66 3 -5.32 3 -6 3 Z M3 7 C4.98 7.99 4.98 7.99 7 9 C6.67 8.34 6.34 7.68 6 7 C5.01 7 4.02 7 3 7 Z " fill="#4D4D4D" transform="translate(194,138)"/>
<path d="M0 0 C-0.33 0.99 -0.66 1.98 -1 3 C-1.33 2.67 -1.66 2.34 -2 2 C-2.33 3.32 -2.66 4.64 -3 6 C-4.65 6.33 -6.3 6.66 -8 7 C-8 7.99 -8 8.98 -8 10 C-10.85160391 10.81434143 -13.36626131 11.11881242 -16.328125 11.09765625 C-17.12734375 11.09443359 -17.9265625 11.09121094 -18.75 11.08789062 C-19.575 11.07951172 -20.4 11.07113281 -21.25 11.0625 C-22.09046875 11.05798828 -22.9309375 11.05347656 -23.796875 11.04882812 C-25.86461401 11.03707961 -27.93231624 11.01914522 -30 11 C-30.66 9.35 -31.32 7.7 -32 6 C-30.47632813 5.97873047 -30.47632813 5.97873047 -28.921875 5.95703125 C-20.60857998 5.71282061 -14.04773463 4.80286358 -6.453125 1.05859375 C-4 0 -4 0 0 0 Z " fill="#3CC0D6" transform="translate(85,93)"/>
<path d="M0 0 C2.0245738 1.93254772 3.42105792 3.63158688 5 6 C5.66 5.01 6.32 4.02 7 3 C10 4 10 4 11 6 C11.99 4.02 12.98 2.04 14 0 C14.99 0.33 15.98 0.66 17 1 C15.93204565 5.50066475 14.85961414 9.7494534 13 14 C12.01 14 11.02 14 10 14 C9.34 12.68 8.68 11.36 8 10 C7.34 11.32 6.68 12.64 6 14 C4.11328125 13.76953125 4.11328125 13.76953125 2 13 C0.91796875 11.07421875 0.91796875 11.07421875 0.1875 8.6875 C-0.06644531 7.90761719 -0.32039062 7.12773437 -0.58203125 6.32421875 C-1.02792519 3.84471509 -0.79557487 2.36507631 0 0 Z " fill="#505050" transform="translate(13,135)"/>
<path d="M0 0 C-0.99 0.495 -0.99 0.495 -2 1 C-2 6.61 -2 12.22 -2 18 C-2.66 17.67 -3.32 17.34 -4 17 C-4 17.99 -4 18.98 -4 20 C-3.34 20.66 -2.68 21.32 -2 22 C-3.75 22.6875 -3.75 22.6875 -6 23 C-7.36733028 22.04701223 -8.70264493 21.04625409 -10 20 C-10.99 20 -11.98 20 -13 20 C-14.67099977 19.68911632 -16.33871537 19.35919668 -18 19 C-18 18.67 -18 18.34 -18 18 C-16.741875 17.773125 -15.48375 17.54625 -14.1875 17.3125 C-11.0905589 16.52728266 -10.16691463 16.18208868 -7.9375 13.75 C-6.46013867 9.41640677 -7.59116184 6.22651449 -9 2 C-5.5647952 -0.29013653 -4.014669 -0.17842973 0 0 Z M-15 20 C-13 21 -13 21 -13 21 Z " fill="#282828" transform="translate(153,64)"/>
<path d="M0 0 C2.33333333 2.33333333 4.66666667 4.66666667 7 7 C7.33 4.69 7.66 2.38 8 0 C8.66 0 9.32 0 10 0 C11.32229189 2.64458379 11.09677194 4.67761301 11.0625 7.625 C11.05347656 8.62789062 11.04445312 9.63078125 11.03515625 10.6640625 C11.02355469 11.43492187 11.01195312 12.20578125 11 13 C9.68 13.33 8.36 13.66 7 14 C5.68 12.35 4.36 10.7 3 9 C2.67 10.65 2.34 12.3 2 14 C1.01 14 0.02 14 -1 14 C-1.02685938 11.85423363 -1.04633088 9.70837355 -1.0625 7.5625 C-1.07410156 6.36753906 -1.08570313 5.17257813 -1.09765625 3.94140625 C-1 1 -1 1 0 0 Z " fill="#575757" transform="translate(223,135)"/>
<path d="M0 0 C2.69082872 0.17635452 5.32851446 0.61835921 8 1 C8 1.33 8 1.66 8 2 C30.77 2.33 53.54 2.66 77 3 C77 3.33 77 3.66 77 4 C52.25 4 27.5 4 2 4 C2 4.66 2 5.32 2 6 C0.68 6 -0.64 6 -2 6 C-1.125 1.125 -1.125 1.125 0 0 Z " fill="#868686" transform="translate(11,19)"/>
<path d="M0 0 C3.96 0 7.92 0 12 0 C12.33 0.66 12.66 1.32 13 2 C13.66 2.33 14.32 2.66 15 3 C13.5625 5.5 13.5625 5.5 11 8 C7.878628 8.45665511 5.17787146 8.23366702 2 8 C1.67 11.3 1.34 14.6 1 18 C0.67 18 0.34 18 0 18 C0 12.06 0 6.12 0 0 Z " fill="#5B5B5B" transform="translate(255,64)"/>
<path d="M0 0 C0.99 0.33 1.98 0.66 3 1 C2.34 1 1.68 1 1 1 C1.04600342 1.59538574 1.09200684 2.19077148 1.1394043 2.80419922 C1.33817859 5.49356021 1.51311424 8.18395231 1.6875 10.875 C1.76033203 11.81214844 1.83316406 12.74929687 1.90820312 13.71484375 C1.96298828 14.61074219 2.01777344 15.50664063 2.07421875 16.4296875 C2.16062622 17.67081299 2.16062622 17.67081299 2.2487793 18.93701172 C2.16668213 19.61779785 2.08458496 20.29858398 2 21 C-1 23 -1 23 -3.9375 22.875 C-7.36882304 21.89462199 -8.73600847 20.69937452 -11 18 C-10.01 17.67 -9.02 17.34 -8 17 C-8 16.34 -8 15.68 -8 15 C-12.7897321 14.76571687 -12.7897321 14.76571687 -17 17 C-16.67 15.68 -16.34 14.36 -16 13 C-14.3973218 12.89175157 -12.79254252 12.81429355 -11.1875 12.75 C-10.29417969 12.70359375 -9.40085938 12.6571875 -8.48046875 12.609375 C-6 13 -6 13 -4.17578125 15.015625 C-3.78777344 15.67046875 -3.39976562 16.3253125 -3 17 C-0.84940691 13.46813168 -0.6202272 10.33712007 -0.375 6.25 C-0.30023438 5.07953125 -0.22546875 3.9090625 -0.1484375 2.703125 C-0.09945312 1.81109375 -0.05046875 0.9190625 0 0 Z " fill="#373737" transform="translate(236,64)"/>
<path d="M0 0 C0.99 0.33 1.98 0.66 3 1 C3 1.66 3 2.32 3 3 C3.66 3 4.32 3 5 3 C4.814375 4.093125 4.62875 5.18625 4.4375 6.3125 C3.7421932 9.93624133 3.7421932 9.93624133 5 13 C3.35 13 1.7 13 0 13 C-0.33 10.69 -0.66 8.38 -1 6 C-2.65 5.67 -4.3 5.34 -6 5 C-6.33 7.64 -6.66 10.28 -7 13 C-7.99 13 -8.98 13 -10 13 C-10 9.7 -10 6.4 -10 3 C-6.30458414 2.04975021 -3.69541586 2.04975021 0 3 C0 2.01 0 1.02 0 0 Z " fill="#515151" transform="translate(256,136)"/>
<path d="M0 0 C0.99 0 1.98 0 3 0 C3.33 2.31 3.66 4.62 4 7 C4.33 7 4.66 7 5 7 C5.33 4.69 5.66 2.38 6 0 C6.99 0 7.98 0 9 0 C9.19658808 1.41543415 9.38187546 2.83244031 9.5625 4.25 C9.66691406 5.03890625 9.77132812 5.8278125 9.87890625 6.640625 C10.00211719 9.04125113 9.83159765 10.74920877 9 13 C6.29120665 14.35439668 3.99066732 14.06501451 1 14 C-0.20568053 9.32798795 -0.09382426 4.78503708 0 0 Z " fill="#353535" transform="translate(117,139)"/>
<path d="M0 0 C5.625 -0.25 5.625 -0.25 9 2 C9.3125 5 9.3125 5 9 8 C8.34 8.66 7.68 9.32 7 10 C5.68 10 4.36 10 3 10 C2.67 11.32 2.34 12.64 2 14 C1.01 13.67 0.02 13.34 -1 13 C-1.02696365 11.20841511 -1.04637917 9.41671527 -1.0625 7.625 C-1.07410156 6.62726563 -1.08570313 5.62953125 -1.09765625 4.6015625 C-1 2 -1 2 0 0 Z M3 3 C3.33 4.32 3.66 5.64 4 7 C4.66 7 5.32 7 6 7 C6 5.68 6 4.36 6 3 C5.01 3 4.02 3 3 3 Z " fill="#525252" transform="translate(134,135)"/>
<path d="M0 0 C1.134375 0.020625 2.26875 0.04125 3.4375 0.0625 C3.7675 1.0525 4.0975 2.0425 4.4375 3.0625 C2.4575 3.0625 0.4775 3.0625 -1.5625 3.0625 C-1.5625 4.0525 -1.5625 5.0425 -1.5625 6.0625 C0.4175 6.0625 2.3975 6.0625 4.4375 6.0625 C4.1075 7.0525 3.7775 8.0425 3.4375 9.0625 C1.7875 9.0625 0.1375 9.0625 -1.5625 9.0625 C-1.5625 9.7225 -1.5625 10.3825 -1.5625 11.0625 C0.4175 11.0625 2.3975 11.0625 4.4375 11.0625 C4.4375 12.0525 4.4375 13.0425 4.4375 14.0625 C1.4675 14.0625 -1.5025 14.0625 -4.5625 14.0625 C-4.58935938 11.91673363 -4.60883088 9.77087355 -4.625 7.625 C-4.63660156 6.43003906 -4.64820312 5.23507813 -4.66015625 4.00390625 C-4.51766709 -0.28786723 -4.40551892 0.07728981 0 0 Z " fill="#383838" transform="translate(81.5625,134.9375)"/>
<path d="M0 0 C1.23104155 3.68400584 0.90767252 6.91474976 0.5625 10.75 C0.46066406 11.92046875 0.35882813 13.0909375 0.25390625 14.296875 C0.17011719 15.18890625 0.08632813 16.0809375 0 17 C0.66 17 1.32 17 2 17 C2 13.37 2 9.74 2 6 C2.99 5.67 3.98 5.34 5 5 C5.02578125 5.83402344 5.0515625 6.66804688 5.078125 7.52734375 C5.44685458 14.84327377 6.4287493 20.57174875 10 27 C8.1015625 26.71875 8.1015625 26.71875 6 26 C4.93097061 23.69747517 3.92824183 21.3627974 3 19 C2.34 18.67 1.68 18.34 1 18 C1 19.98 1 21.96 1 24 C-2.81277047 18.2808443 -2.37789975 12.67037003 -2 6 C-1 2.25 -1 2.25 0 0 Z " fill="#56CFE1" transform="translate(35,63)"/>
<path d="M0 0 C2 3 2 3 2 6 C0.68 6.33 -0.64 6.66 -2 7 C-1.01 7 -0.02 7 1 7 C1 7.99 1 8.98 1 10 C-1.72041151 10.75566986 -3.5018217 11.13838286 -6.25 10.375 C-8 9 -8 9 -8.875 6.625 C-9.01436345 3.69836752 -8.63131744 2.40404675 -7 0 C-4.27584084 -1.36207958 -2.87220643 -0.86166193 0 0 Z " fill="#4E4E4E" transform="translate(106,139)"/>
<path d="M0 0 C0.99 0 1.98 0 3 0 C3.83288874 6.25307239 4.03863773 11.76817361 3 18 C2.01 18 1.02 18 0 18 C-0.33 17.34 -0.66 16.68 -1 16 C-1.99 16.33 -2.98 16.66 -4 17 C-5.32 14.36 -6.64 11.72 -8 9 C-6.68 8.67 -5.36 8.34 -4 8 C-3.67 7.01 -3.34 6.02 -3 5 C-2.67 6.32 -2.34 7.64 -2 9 C-1.34 9 -0.68 9 0 9 C0 6.03 0 3.06 0 0 Z " fill="#585858" transform="translate(345,64)"/>
<path d="M0 0 C2.97 0 5.94 0 9 0 C10.25 6.625 10.25 6.625 8 10 C4.875 10.1875 4.875 10.1875 2 10 C1.67 12.64 1.34 15.28 1 18 C0.67 18 0.34 18 0 18 C0 12.06 0 6.12 0 0 Z " fill="#797979" transform="translate(191,64)"/>
<path d="M0 0 C2.375 1.0625 2.375 1.0625 3.6875 3.625 C4.0278125 4.8315625 4.0278125 4.8315625 4.375 6.0625 C2.395 7.0525 2.395 7.0525 0.375 8.0625 C1.365 8.0625 2.355 8.0625 3.375 8.0625 C3.045 9.0525 2.715 10.0425 2.375 11.0625 C-0.01073912 12.13196926 -1.27902883 12.15146402 -3.8125 11.5 C-5.625 10.0625 -5.625 10.0625 -6.625 7.1875 C-6.625 4.0625 -6.625 4.0625 -5 1.625 C-2.625 0.0625 -2.625 0.0625 0 0 Z " fill="#616161" transform="translate(47.625,137.9375)"/>
<path d="M0 0 C1.875 0.8125 1.875 0.8125 3.875 2.8125 C3.875 4.1325 3.875 5.4525 3.875 6.8125 C2.555 7.1425 1.235 7.4725 -0.125 7.8125 C1.195 7.8125 2.515 7.8125 3.875 7.8125 C3.545 8.8025 3.215 9.7925 2.875 10.8125 C-0.10288882 11.72241047 -1.55997994 12.07210381 -4.4375 10.75 C-6.125 8.8125 -6.125 8.8125 -6.625 5.8125 C-6.125 2.8125 -6.125 2.8125 -4.375 0.875 C-2.125 -0.1875 -2.125 -0.1875 0 0 Z " fill="#323232" transform="translate(335.125,138.1875)"/>
<path d="M0 0 C2.375 1.0625 2.375 1.0625 3.6875 3.625 C4.0278125 4.8315625 4.0278125 4.8315625 4.375 6.0625 C2.395 7.0525 2.395 7.0525 0.375 8.0625 C1.365 8.0625 2.355 8.0625 3.375 8.0625 C3.045 9.0525 2.715 10.0425 2.375 11.0625 C-0.01073912 12.13196926 -1.27902883 12.15146402 -3.8125 11.5 C-5.625 10.0625 -5.625 10.0625 -6.625 7.1875 C-6.625 4.0625 -6.625 4.0625 -5 1.625 C-2.625 0.0625 -2.625 0.0625 0 0 Z " fill="#5C5C5C" transform="translate(66.625,137.9375)"/>
<path d="M0 0 C3.125 0.25 3.125 0.25 5.0625 1.4375 C6.125 3.25 6.125 3.25 5.9375 5.8125 C5.125 8.25 5.125 8.25 3.125 10.25 C1.805 10.25 0.485 10.25 -0.875 10.25 C-0.875 11.57 -0.875 12.89 -0.875 14.25 C-1.865 14.25 -2.855 14.25 -3.875 14.25 C-3.90185938 12.10423363 -3.92133088 9.95837355 -3.9375 7.8125 C-3.94910156 6.61753906 -3.96070313 5.42257813 -3.97265625 4.19140625 C-3.8445987 0.33431293 -3.8445987 0.33431293 0 0 Z M-0.875 3.25 C-0.875 4.57 -0.875 5.89 -0.875 7.25 C0.445 6.92 1.765 6.59 3.125 6.25 C2.795 5.26 2.465 4.27 2.125 3.25 C1.135 3.25 0.145 3.25 -0.875 3.25 Z " fill="#3B3B3B" transform="translate(349.875,134.75)"/>
<path d="M0 0 C0.99 0 1.98 0 3 0 C3 1.32 3 2.64 3 4 C4.65 3.67 6.3 3.34 8 3 C10.67927341 7.01891012 10.15601248 9.24161923 10 14 C9.01 14 8.02 14 7 14 C6.87625 12.865625 6.7525 11.73125 6.625 10.5625 C6.41875 9.386875 6.2125 8.21125 6 7 C5.34 6.67 4.68 6.34 4 6 C3.67 8.64 3.34 11.28 3 14 C2.01 14 1.02 14 0 14 C0 9.38 0 4.76 0 0 Z " fill="#555555" transform="translate(318,135)"/>
<path d="M0 0 C0.99 0 1.98 0 3 0 C3 1.32 3 2.64 3 4 C4.65 3.67 6.3 3.34 8 3 C10.67927341 7.01891012 10.15601248 9.24161923 10 14 C9.01 14 8.02 14 7 14 C6.87625 12.865625 6.7525 11.73125 6.625 10.5625 C6.41875 9.386875 6.2125 8.21125 6 7 C5.34 6.67 4.68 6.34 4 6 C3.67 8.64 3.34 11.28 3 14 C2.01 14 1.02 14 0 14 C0 9.38 0 4.76 0 0 Z " fill="#565656" transform="translate(173,135)"/>
<path d="M0 0 C4.725 5.90625 4.725 5.90625 6.75 8.6875 C7.17796875 9.26886719 7.6059375 9.85023437 8.046875 10.44921875 C9 12 9 12 9 14 C7.875 15.6875 7.875 15.6875 6 17 C4.02 16.67 2.04 16.34 0 16 C0 10.72 0 5.44 0 0 Z " fill="#202020" transform="translate(238,66)"/>
<path d="M0 0 C3.63 0 7.26 0 11 0 C11 0.66 11 1.32 11 2 C6.545 2.495 6.545 2.495 2 3 C2 5.31 2 7.62 2 10 C4.31 10 6.62 10 9 10 C9 13 9 13 7.5 14.6875 C7.005 15.120625 6.51 15.55375 6 16 C7.98 16 9.96 16 12 16 C11.67 16.66 11.34 17.32 11 18 C10.37351563 17.91621094 9.74703125 17.83242187 9.1015625 17.74609375 C8.28429687 17.64425781 7.46703125 17.54242188 6.625 17.4375 C5.81289062 17.33308594 5.00078125 17.22867188 4.1640625 17.12109375 C1.95100814 16.81762672 1.95100814 16.81762672 0 18 C0 12.06 0 6.12 0 0 Z " fill="#888888" transform="translate(170,64)"/>
<path d="M0 0 C1.27875 -0.061875 2.5575 -0.12375 3.875 -0.1875 C4.95394531 -0.23970703 4.95394531 -0.23970703 6.0546875 -0.29296875 C6.69664062 -0.19628906 7.33859375 -0.09960938 8 0 C10.12508244 3.18762365 10.5020163 5.26512223 11 9 C7.7 8.67 4.4 8.34 1 8 C1 9.98 1 11.96 1 14 C3.97 14 6.94 14 10 14 C10 14.33 10 14.66 10 15 C6.7 15 3.4 15 0 15 C0 10.05 0 5.1 0 0 Z " fill="#434343" transform="translate(363,66)"/>
<path d="M0 0 C2.4375 0.8125 2.4375 0.8125 4.4375 2.8125 C4.4375 4.1325 4.4375 5.4525 4.4375 6.8125 C3.1175 7.1425 1.7975 7.4725 0.4375 7.8125 C1.4275 7.8125 2.4175 7.8125 3.4375 7.8125 C3.4375 8.8025 3.4375 9.7925 3.4375 10.8125 C0.45961118 11.72241047 -0.99747994 12.07210381 -3.875 10.75 C-5.5625 8.8125 -5.5625 8.8125 -6 5.8125 C-5.5625 2.8125 -5.5625 2.8125 -4.375 0.875 C-2.5625 -0.1875 -2.5625 -0.1875 0 0 Z " fill="#656565" transform="translate(210.5625,138.1875)"/>
<path d="M0 0 C2.4375 0.8125 2.4375 0.8125 4.4375 2.8125 C4.4375 4.1325 4.4375 5.4525 4.4375 6.8125 C3.1175 7.1425 1.7975 7.4725 0.4375 7.8125 C1.4275 7.8125 2.4175 7.8125 3.4375 7.8125 C3.4375 8.8025 3.4375 9.7925 3.4375 10.8125 C0.45961118 11.72241047 -0.99747994 12.07210381 -3.875 10.75 C-5.5625 8.8125 -5.5625 8.8125 -6 5.8125 C-5.5625 2.8125 -5.5625 2.8125 -4.375 0.875 C-2.5625 -0.1875 -2.5625 -0.1875 0 0 Z " fill="#353535" transform="translate(286.5625,138.1875)"/>
<path d="M0 0 C0 3.63 0 7.26 0 11 C-5.625 12.125 -5.625 12.125 -9 11 C-10.39935013 8.20129973 -10.25265405 6.09501208 -10 3 C-7.7109263 -1.03954182 -4.21983723 -0.23885871 0 0 Z M-6 3 C-6.33 4.65 -6.66 6.3 -7 8 C-5.68 8 -4.36 8 -3 8 C-3.33 6.35 -3.66 4.7 -4 3 C-4.66 3 -5.32 3 -6 3 Z " fill="#535353" transform="translate(372,138)"/>
<path d="M0 0 C2.3125 1.5 2.3125 1.5 3.125 4.125 C3.186875 4.90875 3.24875 5.6925 3.3125 6.5 C1.9925 6.83 0.6725 7.16 -0.6875 7.5 C0.3025 7.5 1.2925 7.5 2.3125 7.5 C2.3125 8.49 2.3125 9.48 2.3125 10.5 C-0.66538882 11.40991047 -2.12247994 11.75960381 -5 10.4375 C-6.6875 8.5 -6.6875 8.5 -7.1875 5.5 C-6.6875 2.5 -6.6875 2.5 -5 0.5 C-2.6875 -0.5 -2.6875 -0.5 0 0 Z " fill="#555555" transform="translate(391.6875,138.5)"/>
<path d="M0 0 C3 1 3 1 4 3 C5.32303717 3.3721042 6.65737935 3.70630173 8 4 C9 5 9 5 9.09765625 7.06640625 C9.08605469 7.89011719 9.07445312 8.71382812 9.0625 9.5625 C9.05347656 10.38878906 9.04445313 11.21507812 9.03515625 12.06640625 C9.02355469 12.70449219 9.01195312 13.34257812 9 14 C8.01 14 7.02 14 6 14 C5.67 11.69 5.34 9.38 5 7 C4.67 7 4.34 7 4 7 C3.67 9.31 3.34 11.62 3 14 C2.01 14 1.02 14 0 14 C0 9.38 0 4.76 0 0 Z " fill="#424242" transform="translate(31,135)"/>
<path d="M0 0 C1.485 0.99 1.485 0.99 3 2 C4.32567199 2.68177416 5.65753688 3.35191436 7 4 C6.67 3.01 6.34 2.02 6 1 C9.465 0.505 9.465 0.505 13 0 C13 5.28 13 10.56 13 16 C12.67 16 12.34 16 12 16 C11.67 11.71 11.34 7.42 11 3 C9.27735506 6.29549466 7.70554068 9.33118845 7 13 C4 12 4 12 2.83203125 9.78515625 C2.32736328 8.43744141 2.32736328 8.43744141 1.8125 7.0625 C1.46832031 6.16660156 1.12414062 5.27070312 0.76953125 4.34765625 C0 2 0 2 0 0 Z " fill="#696868" transform="translate(294,66)"/>
<path d="M0 0 C1.670625 0.061875 1.670625 0.061875 3.375 0.125 C2.375 3.125 2.375 3.125 -0.625 5.125 C-1.615 5.125 -2.605 5.125 -3.625 5.125 C-3.955 4.795 -4.285 4.465 -4.625 4.125 C-6.275 5.775 -7.925 7.425 -9.625 9.125 C-10.285 8.135 -10.945 7.145 -11.625 6.125 C-15.70464281 7.42655006 -15.70464281 7.42655006 -19.625 9.125 C-20.285 8.465 -20.945 7.805 -21.625 7.125 C-21.295 6.135 -20.965 5.145 -20.625 4.125 C-19.87734375 4.06441406 -19.1296875 4.00382812 -18.359375 3.94140625 C-17.37453125 3.85761719 -16.3896875 3.77382812 -15.375 3.6875 C-13.91320312 3.56568359 -13.91320312 3.56568359 -12.421875 3.44140625 C-7.53600522 2.88867517 -4.50293075 0.15527347 0 0 Z " fill="#131313" transform="translate(225.625,77.875)"/>
<path d="M0 0 C2.97 0 5.94 0 9 0 C10.125 2.3125 10.125 2.3125 11 5 C10.01 6.485 10.01 6.485 9 8 C5.375 8.1875 5.375 8.1875 2 8 C1.67 11.3 1.34 14.6 1 18 C0.67 18 0.34 18 0 18 C0 12.06 0 6.12 0 0 Z " fill="#5C5C5C" transform="translate(330,64)"/>
<path d="M0 0 C1.67542976 0.28604898 3.34385343 0.61781233 5 1 C5.33 1.99 5.66 2.98 6 4 C4.68 4 3.36 4 2 4 C3.32 4.66 4.64 5.32 6 6 C5.67 7.65 5.34 9.3 5 11 C2.21176345 12.0326802 1.1322726 12.04509293 -1.75 11.0625 C-2.4925 10.711875 -3.235 10.36125 -4 10 C-4 7.36 -4 4.72 -4 2 C-3.67 2 -3.34 2 -3 2 C-2.67 3.32 -2.34 4.64 -2 6 C-1.855625 5.195625 -1.71125 4.39125 -1.5625 3.5625 C-1 1 -1 1 0 0 Z M-1 7 C0.98 7.99 0.98 7.99 3 9 C2.67 8.34 2.34 7.68 2 7 C1.01 7 0.02 7 -1 7 Z " fill="#5B5B5B" transform="translate(198,138)"/>
<path d="M0 0 C0.66 0.33 1.32 0.66 2 1 C0.25192871 6.46737191 -1.65794081 11.75824848 -4 17 C-4.99 17 -5.98 17 -7 17 C-7.08114106 15.22992286 -7.13925505 13.45877902 -7.1875 11.6875 C-7.22230469 10.70136719 -7.25710938 9.71523437 -7.29296875 8.69921875 C-7 6 -7 6 -5.625 4.25 C-5.08875 3.8375 -4.5525 3.425 -4 3 C-3.278125 2.443125 -2.55625 1.88625 -1.8125 1.3125 C-1.214375 0.879375 -0.61625 0.44625 0 0 Z " fill="#1C1C1C" transform="translate(316,65)"/>
<path d="M0 0 C1.65 0.33 3.3 0.66 5 1 C4.67 2.32 4.34 3.64 4 5 C4.66 5.33 5.32 5.66 6 6 C6 6.66 6 7.32 6 8 C5.34 8.66 4.68 9.32 4 10 C4 10.99 4 11.98 4 13 C2.02 13 0.04 13 -2 13 C-2 11.68 -2 10.36 -2 9 C-2.226875 8.175 -2.45375 7.35 -2.6875 6.5 C-3 4 -3 4 -1.5625 1.6875 C-1.046875 1.130625 -0.53125 0.57375 0 0 Z " fill="#111111" transform="translate(138,67)"/>
<path d="M0 0 C1.125 3.75 1.125 3.75 0 6 C0.99 6 1.98 6 3 6 C2.67 4.35 2.34 2.7 2 1 C2.99 1 3.98 1 5 1 C5.7578125 2.6796875 5.7578125 2.6796875 6 5 C4.3046875 7.5078125 4.3046875 7.5078125 1.875 10.125 C1.08867188 10.99382812 0.30234375 11.86265625 -0.5078125 12.7578125 C-2.97164849 14.97449253 -4.86796358 16.0080027 -8 17 C-8 16.01 -8 15.02 -8 14 C-6.35 13.67 -4.7 13.34 -3 13 C-3 11.35 -3 9.7 -3 8 C-2.34 8.33 -1.68 8.66 -1 9 C-0.67 8.34 -0.34 7.68 0 7 C-2.31 7.66 -4.62 8.32 -7 9 C-6.57847656 8.51789063 -6.15695313 8.03578125 -5.72265625 7.5390625 C-5.17480469 6.90742187 -4.62695312 6.27578125 -4.0625 5.625 C-3.51722656 4.99851562 -2.97195312 4.37203125 -2.41015625 3.7265625 C-0.93041376 2.04367666 -0.93041376 2.04367666 0 0 Z " fill="#53C7DA" transform="translate(85,86)"/>
<path d="M0 0 C6.625 -0.125 6.625 -0.125 10 1 C11.89212737 1.22179785 13.78884472 1.40614015 15.6875 1.5625 C16.68136719 1.64628906 17.67523438 1.73007813 18.69921875 1.81640625 C19.83810547 1.90728516 19.83810547 1.90728516 21 2 C20.67 2.99 20.34 3.98 20 5 C14.06 5 8.12 5 2 5 C1.34 3.35 0.68 1.7 0 0 Z " fill="#16BCDB" transform="translate(53,99)"/>
<path d="M0 0 C2.625 0.375 2.625 0.375 5 1 C5.33 1.99 5.66 2.98 6 4 C4.68 4 3.36 4 2 4 C3.32 4.66 4.64 5.32 6 6 C5.67 7.65 5.34 9.3 5 11 C2.39417629 11.93065133 1.35801776 12.14917407 -1.25 11.0625 C-1.8275 10.711875 -2.405 10.36125 -3 10 C-2.25 2.25 -2.25 2.25 0 0 Z M-1 7 C0.98 7.99 0.98 7.99 3 9 C2.67 8.34 2.34 7.68 2 7 C1.01 7 0.02 7 -1 7 Z " fill="#444443" transform="translate(294,138)"/>
<path d="M0 0 C0 3.3 0 6.6 0 10 C-0.99 10 -1.98 10 -3 10 C-3 7.36 -3 4.72 -3 2 C-3.99 2.495 -3.99 2.495 -5 3 C-5.40729228 5.32156597 -5.74438677 7.6568787 -6 10 C-6.99 10 -7.98 10 -9 10 C-9 6.7 -9 3.4 -9 0 C-5.16380575 -0.95904856 -3.67568464 -0.91892116 0 0 Z " fill="#4B4B4B" transform="translate(383,139)"/>
<path d="M0 0 C0.99 0.33 1.98 0.66 3 1 C3.33 3.31 3.66 5.62 4 8 C4.33 8 4.66 8 5 8 C5.33 5.69 5.66 3.38 6 1 C6.99 1 7.98 1 9 1 C9.36248013 8.37042925 9.36248013 8.37042925 7.8125 11.0625 C5.23719907 12.3945522 3.70282604 11.85352401 1 11 C0 10 0 10 -0.09765625 7.71484375 C-0.08605469 6.79832031 -0.07445312 5.88179687 -0.0625 4.9375 C-0.05347656 4.01839844 -0.04445312 3.09929687 -0.03515625 2.15234375 C-0.02355469 1.44207031 -0.01195312 0.73179687 0 0 Z " fill="#585858" transform="translate(145,138)"/>
<path d="M0 0 C0.66 0.33 1.32 0.66 2 1 C2.59355614 3.64860427 2.74209269 6.29197322 3 9 C3.66 8.67 4.32 8.34 5 8 C5.40729228 5.67843403 5.74438677 3.3431213 6 1 C6.99 1 7.98 1 9 1 C9.48457656 8.38979248 9.48457656 8.38979248 7.3125 11.125 C5 12 5 12 2.3125 11.25 C0 10 0 10 -1 9 C-1.1328125 7.1875 -1.1328125 7.1875 -1.125 5 C-1.12757813 4.278125 -1.13015625 3.55625 -1.1328125 2.8125 C-1 1 -1 1 0 0 Z " fill="#535353" transform="translate(236,138)"/>
<path d="M0 0 C0.66 0.33 1.32 0.66 2 1 C2.40729228 3.32156597 2.74438677 5.6568787 3 8 C3.66 8 4.32 8 5 8 C5.33 5.69 5.66 3.38 6 1 C6.99 1 7.98 1 9 1 C9.48457656 8.38979248 9.48457656 8.38979248 7.3125 11.125 C5 12 5 12 2.3125 11.3125 C0 10 0 10 -1 8 C-1.125 4.4375 -1.125 4.4375 -1 1 C-0.67 0.67 -0.34 0.34 0 0 Z " fill="#4D4D4D" transform="translate(263,138)"/>
<path d="M0 0 C0.99 0.33 1.98 0.66 3 1 C3.45375 2.134375 3.9075 3.26875 4.375 4.4375 C5.60195391 8.13968071 5.60195391 8.13968071 8.5 9.1875 C9.325 9.455625 10.15 9.72375 11 10 C12.8125 12.125 12.8125 12.125 14 14 C13.01 14.33 12.02 14.66 11 15 C11 14.34 11 13.68 11 13 C8.03 12.505 8.03 12.505 5 12 C5 11.34 5 10.68 5 10 C3.68 10 2.36 10 1 10 C-0.60725635 6.78548731 -0.05748185 3.56387464 0 0 Z " fill="#47C5D9" transform="translate(36,81)"/>
<path d="M0 0 C3.3 0 6.6 0 10 0 C10 0.99 10 1.98 10 3 C8.68 3 7.36 3 6 3 C6 6.63 6 10.26 6 14 C5.01 14 4.02 14 3 14 C3 10.37 3 6.74 3 3 C1.68 3 0.36 3 -1 3 C-0.67 2.01 -0.34 1.02 0 0 Z " fill="#464646" transform="translate(307,135)"/>
<path d="M0 0 C0.99 0.33 1.98 0.66 3 1 C3 1.99 3 2.98 3 4 C2.34 4 1.68 4 1 4 C1.26103516 4.79664062 1.26103516 4.79664062 1.52734375 5.609375 C2.12121071 8.61306572 1.86021606 11.20668028 1.5625 14.25 C1.46066406 15.32765625 1.35882813 16.4053125 1.25390625 17.515625 C1.17011719 18.33546875 1.08632813 19.1553125 1 20 C-0.32 20 -1.64 20 -3 20 C-3.02709444 17.91673869 -3.04643873 15.83337559 -3.0625 13.75 C-3.07410156 12.58984375 -3.08570313 11.4296875 -3.09765625 10.234375 C-3.01782092 7.59022872 -2.78643778 5.50173909 -2 3 C-1.34 3 -0.68 3 0 3 C0 2.01 0 1.02 0 0 Z " fill="#1FB8D3" transform="translate(38,60)"/>
<path d="M0 0 C4.53786224 2.26893112 5.94678157 4.09866534 9 8 C8.01 8.66 7.02 9.32 6 10 C5.67 10.66 5.34 11.32 5 12 C3.02 11.34 1.04 10.68 -1 10 C-0.67 6.7 -0.34 3.4 0 0 Z " fill="#1F1F1F" transform="translate(348,74)"/>
<path d="M0 0 C0.763125 0.20625 1.52625 0.4125 2.3125 0.625 C2.3125 1.615 2.3125 2.605 2.3125 3.625 C0.6625 3.955 -0.9875 4.285 -2.6875 4.625 C-2.3575 5.615 -2.0275 6.605 -1.6875 7.625 C-0.3675 7.625 0.9525 7.625 2.3125 7.625 C2.3125 8.615 2.3125 9.605 2.3125 10.625 C0.0625 11.375 0.0625 11.375 -2.6875 11.625 C-5.0625 10.0625 -5.0625 10.0625 -6.6875 7.625 C-6.625 4.5 -6.625 4.5 -5.6875 1.625 C-2.6875 -0.375 -2.6875 -0.375 0 0 Z " fill="#4D4D4D" transform="translate(169.6875,138.375)"/>
<path d="M0 0 C2.38494054 3.17992072 3.78903422 5.42390466 5.25 9 C5.60578125 9.845625 5.9615625 10.69125 6.328125 11.5625 C7.05204912 14.18882935 6.9128421 15.47212957 6 18 C5.67 17.34 5.34 16.68 5 16 C4.34 16 3.68 16 3 16 C3 15.01 3 14.02 3 13 C2.34 13 1.68 13 1 13 C0.67 13.99 0.34 14.98 0 16 C0 10.72 0 5.44 0 0 Z " fill="#4B4A4B" transform="translate(292,66)"/>
<path d="M0 0 C-3.18554592 0.96541545 -5.88752707 1.05239684 -9.203125 0.87890625 C-10.1828125 0.83056641 -11.1625 0.78222656 -12.171875 0.73242188 C-13.69554688 0.64831055 -13.69554688 0.64831055 -15.25 0.5625 C-16.796875 0.48418945 -16.796875 0.48418945 -18.375 0.40429688 C-20.91699039 0.27484366 -23.45856593 0.13988672 -26 0 C-19.67439689 -6.32560311 -7.21527803 -3.33012832 0 0 Z " fill="#66CBD9" transform="translate(78,47)"/>
<path d="M0 0 C0.99 0 1.98 0 3 0 C3 5.28 3 10.56 3 16 C5.64 16 8.28 16 11 16 C11 16.33 11 16.66 11 17 C10.37351563 16.98839844 9.74703125 16.97679688 9.1015625 16.96484375 C7.87566406 16.95130859 7.87566406 16.95130859 6.625 16.9375 C5.40683594 16.92009766 5.40683594 16.92009766 4.1640625 16.90234375 C1.95062858 16.85533666 1.95062858 16.85533666 0 18 C-0.33 14.04 -0.66 10.08 -1 6 C-1.99 6.495 -1.99 6.495 -3 7 C-3.66 5.02 -4.32 3.04 -5 1 C-2.525 1.495 -2.525 1.495 0 2 C0 1.34 0 0.68 0 0 Z " fill="#7C7C7C" transform="translate(205,64)"/>
<path d="M0 0 C0.66 0 1.32 0 2 0 C2 0.99 2 1.98 2 3 C2.99 3 3.98 3 5 3 C4.67 3.99 4.34 4.98 4 6 C3.34 6 2.68 6 2 6 C2 7.32 2 8.64 2 10 C2.99 10.33 3.98 10.66 5 11 C5 11.66 5 12.32 5 13 C3.35 13 1.7 13 0 13 C-0.50403768 11.70990357 -1.00309926 10.41786211 -1.5 9.125 C-1.7784375 8.40570313 -2.056875 7.68640625 -2.34375 6.9453125 C-3 5 -3 5 -3 3 C-2.34 3 -1.68 3 -1 3 C-0.67 2.01 -0.34 1.02 0 0 Z " fill="#5C5C5C" transform="translate(398,136)"/>
<path d="M0 0 C0.66 0.33 1.32 0.66 2 1 C1.85786703 2.89611434 1.71113093 4.79188394 1.5625 6.6875 C1.48128906 7.74324219 1.40007812 8.79898438 1.31640625 9.88671875 C1.03548319 12.65086297 0.59843148 15.28945741 0 18 C-0.99 17.34 -1.98 16.68 -3 16 C-3 17.65 -3 19.3 -3 21 C-3.99 21 -4.98 21 -6 21 C-4.21183801 14.48598131 -4.21183801 14.48598131 -2.9375 11.5625 C-2.0664754 9.18169943 -1.72173049 7.25034008 -1.4375 4.75 C-1 1 -1 1 0 0 Z " fill="#16BCD7" transform="translate(91,71)"/>
<path d="M0 0 C0.99 0 1.98 0 3 0 C3.66 1.32 4.32 2.64 5 4 C5.66 2.68 6.32 1.36 7 0 C7.99 0 8.98 0 10 0 C9.60404157 1.48484412 9.18249294 2.9628831 8.75 4.4375 C8.40195313 5.67306641 8.40195313 5.67306641 8.046875 6.93359375 C7 9 7 9 4.890625 9.78515625 C4.26671875 9.85605469 3.6428125 9.92695313 3 10 C0 3.375 0 3.375 0 0 Z " fill="#4F4F4F" transform="translate(87,139)"/>
<path d="M0 0 C6.0546875 -0.1953125 6.0546875 -0.1953125 8 0 C8.66 0.66 9.32 1.32 10 2 C9.67 3.32 9.34 4.64 9 6 C6.03 6 3.06 6 0 6 C0 4.02 0 2.04 0 0 Z " fill="#070707" transform="translate(364,74)"/>
<path d="M0 0 C2.31 0 4.62 0 7 0 C6.67 1.65 6.34 3.3 6 5 C6.99 5 7.98 5 9 5 C9 5.99 9 6.98 9 8 C6.03 8 3.06 8 0 8 C0 5.36 0 2.72 0 0 Z " fill="#333333" transform="translate(172,66)"/>
<path d="M0 0 C2.83374881 3.20336822 3.5205537 5.78087253 4 10 C1.36 10 -1.28 10 -4 10 C-3.52449439 8.51965236 -3.04448784 7.04074979 -2.5625 5.5625 C-2.29566406 4.73878906 -2.02882812 3.91507812 -1.75390625 3.06640625 C-1 1 -1 1 0 0 Z " fill="#515151" transform="translate(225,66)"/>
<path d="M0 0 C2 1 2 1 2.8515625 3.06640625 C3.10679687 3.89011719 3.36203125 4.71382813 3.625 5.5625 C3.88539063 6.38878906 4.14578125 7.21507813 4.4140625 8.06640625 C4.60742188 8.70449219 4.80078125 9.34257813 5 10 C2.03 10 -0.94 10 -4 10 C-2.68 6.7 -1.36 3.4 0 0 Z " fill="#4B4B4B" transform="translate(319,66)"/>
<path d="M0 0 C3.0625 0.125 3.0625 0.125 5.0625 1.125 C5.0625 1.785 5.0625 2.445 5.0625 3.125 C3.4125 3.125 1.7625 3.125 0.0625 3.125 C-0.2675 5.765 -0.5975 8.405 -0.9375 11.125 C-1.9275 11.125 -2.9175 11.125 -3.9375 11.125 C-3.96438151 9.47925434 -3.98384123 7.83338587 -4 6.1875 C-4.01160156 5.27097656 -4.02320313 4.35445312 -4.03515625 3.41015625 C-3.88717431 -0.05262124 -3.51891368 0.14974101 0 0 Z " fill="#949494" transform="translate(249.9375,137.875)"/>
<path d="M0 0 C0.99 0.33 1.98 0.66 3 1 C1.93204565 5.50066475 0.85961414 9.7494534 -1 14 C-1.99 14 -2.98 14 -4 14 C-4.20494027 10.31107511 -3.80095325 8.20169466 -2 5 C-1.32033324 3.33859237 -0.65061095 1.67299959 0 0 Z " fill="#2C2C2C" transform="translate(27,135)"/>
<path d="M0 0 C0.33 0 0.66 0 1 0 C1.33 2.31 1.66 4.62 2 7 C3.98 7 5.96 7 8 7 C8 7.33 8 7.66 8 8 C6.35 8 4.7 8 3 8 C3 8.66 3 9.32 3 10 C4.98 10 6.96 10 9 10 C9 10.99 9 11.98 9 13 C6.03 13 3.06 13 0 13 C0 8.71 0 4.42 0 0 Z " fill="#5F5F5F" transform="translate(77,136)"/>
<path d="M0 0 C0 0.66 0 1.32 0 2 C-1.32 2 -2.64 2 -4 2 C-4.33 4.64 -4.66 7.28 -5 10 C-5.99 10 -6.98 10 -8 10 C-8 6.7 -8 3.4 -8 0 C-4.71303767 -0.79953138 -3.28976808 -1.09658936 0 0 Z " fill="#575757" transform="translate(281,139)"/>
<path d="M0 0 C0.99 0.33 1.98 0.66 3 1 C2.34 1 1.68 1 1 1 C1.04600342 1.59538574 1.09200684 2.19077148 1.1394043 2.80419922 C1.33817859 5.49356021 1.51311424 8.18395231 1.6875 10.875 C1.76033203 11.81214844 1.83316406 12.74929687 1.90820312 13.71484375 C1.96298828 14.61074219 2.01777344 15.50664063 2.07421875 16.4296875 C2.16062622 17.67081299 2.16062622 17.67081299 2.2487793 18.93701172 C2.16668213 19.61779785 2.08458496 20.29858398 2 21 C1.01 21.66 0.02 22.32 -1 23 C-1.66 22.67 -2.32 22.34 -3 22 C-2.125 14.125 -2.125 14.125 -1 13 C-0.76518307 10.81707226 -0.58636677 8.62796826 -0.4375 6.4375 C-0.35371094 5.23996094 -0.26992187 4.04242188 -0.18359375 2.80859375 C-0.12300781 1.88175781 -0.06242188 0.95492187 0 0 Z " fill="#5E5E5E" transform="translate(236,64)"/>
<path d="M0 0 C0.66 0 1.32 0 2 0 C4.18793655 8.4985965 5.0560562 16.8878876 1 25 C0.67 25 0.34 25 0 25 C0.59288188 17.65835626 1.238212 10.32613141 2 3 C1.34 3 0.68 3 0 3 C0 2.01 0 1.02 0 0 Z " fill="#77D1E0" transform="translate(91,64)"/>
<path d="M0 0 C0.99 0 1.98 0 3 0 C3 4.62 3 9.24 3 14 C2.01 14 1.02 14 0 14 C0 9.38 0 4.76 0 0 Z " fill="#4B4B4B" transform="translate(357,135)"/>
<path d="M0 0 C0.99 0 1.98 0 3 0 C3 4.62 3 9.24 3 14 C2.01 14 1.02 14 0 14 C0 9.38 0 4.76 0 0 Z " fill="#4A4A4A" transform="translate(173,135)"/>
<path d="M0 0 C0.99 0 1.98 0 3 0 C3 4.62 3 9.24 3 14 C2.01 14 1.02 14 0 14 C0 9.38 0 4.76 0 0 Z " fill="#4A4A4A" transform="translate(318,135)"/>
<path d="M0 0 C0 0.99 0 1.98 0 3 C0.66 3.66 1.32 4.32 2 5 C0.25 5.6875 0.25 5.6875 -2 6 C-3.36733028 5.04701223 -4.70264493 4.04625409 -6 3 C-6.99 3 -7.98 3 -9 3 C-10.67099977 2.68911632 -12.33871537 2.35919668 -14 2 C-14 1.67 -14 1.34 -14 1 C-8.83955235 -0.512545 -5.34001821 -1.33500455 0 0 Z M-11 3 C-9 4 -9 4 -9 4 Z " fill="#282828" transform="translate(149,81)"/>
<path d="M0 0 C0.86963087 2.99706695 1.11763099 5.64956526 1.09765625 8.765625 C1.09443359 9.65507813 1.09121094 10.54453125 1.08789062 11.4609375 C1.07951172 12.38132812 1.07113281 13.30171875 1.0625 14.25 C1.05798828 15.18585938 1.05347656 16.12171875 1.04882812 17.0859375 C1.03706918 19.39069041 1.02063426 21.69531227 1 24 C-2.81277047 18.2808443 -2.37789975 12.67037003 -2 6 C-1 2.25 -1 2.25 0 0 Z " fill="#8FD8E4" transform="translate(35,63)"/>
<path d="M0 0 C3.99996286 1.33332095 4.83782337 3.4957827 7 7 C6.67 7.66 6.34 8.32 6 9 C4.68 8.67 3.36 8.34 2 8 C1.67 10.31 1.34 12.62 1 15 C0.67 15 0.34 15 0 15 C0 10.05 0 5.1 0 0 Z " fill="#777777" transform="translate(152,67)"/>
<path d="M0 0 C2.97 0 5.94 0 9 0 C8 3 8 3 6.4375 4.5 C4.65404732 6.01472806 4.65404732 6.01472806 5 9 C4.01 8.67 3.02 8.34 2 8 C0.96868265 5.39137376 0.56942551 2.75952365 0 0 Z " fill="#070707" transform="translate(371,66)"/>
<path d="M0 0 C0 0.66 0 1.32 0 2 C-0.99 2.33 -1.98 2.66 -3 3 C-3.33 5.31 -3.66 7.62 -4 10 C-4.99 10 -5.98 10 -7 10 C-7 6.7 -7 3.4 -7 0 C-3 -1 -3 -1 0 0 Z " fill="#4B4B4B" transform="translate(60,139)"/>
<path d="M0 0 C0 0.66 0 1.32 0 2 C-0.99 2.33 -1.98 2.66 -3 3 C-3.33 5.31 -3.66 7.62 -4 10 C-4.99 10 -5.98 10 -7 10 C-7 6.7 -7 3.4 -7 0 C-3 -1 -3 -1 0 0 Z " fill="#4A4A4A" transform="translate(163,139)"/>
<path d="M0 0 C0 0.66 0 1.32 0 2 C-0.99 2.33 -1.98 2.66 -3 3 C-3.33 5.31 -3.66 7.62 -4 10 C-4.99 10 -5.98 10 -7 10 C-7 6.7 -7 3.4 -7 0 C-3 -1 -3 -1 0 0 Z " fill="#4A4A4A" transform="translate(116,139)"/>
<path d="M0 0 C5.625 -0.25 5.625 -0.25 9 2 C9.1875 5.125 9.1875 5.125 9 8 C6.3333581 9.33332095 4.83319697 8.67102033 2 8 C2 6.35 2 4.7 2 3 C2.99 3.66 3.98 4.32 5 5 C4.33131686 1.88667752 4.33131686 1.88667752 1.9375 0.8125 C1.298125 0.544375 0.65875 0.27625 0 0 Z " fill="#6C6C6C" transform="translate(134,135)"/>
<path d="M0 0 C0.99 0.33 1.98 0.66 3 1 C2.34 1 1.68 1 1 1 C1 6.61 1 12.22 1 18 C0.01 17.34 -0.98 16.68 -2 16 C-2.66 16.33 -3.32 16.66 -4 17 C-4.66 16.34 -5.32 15.68 -6 15 C-5.01 13.68 -4.02 12.36 -3 11 C-2.67 11.33 -2.34 11.66 -2 12 C-0.78306124 9.56612247 -0.68040104 7.58161154 -0.4375 4.875 C-0.35371094 3.96492188 -0.26992187 3.05484375 -0.18359375 2.1171875 C-0.12300781 1.41851562 -0.06242188 0.71984375 0 0 Z " fill="#3F3F3F" transform="translate(150,64)"/>
<path d="M0 0 C3.29714793 0.32971479 4.6226839 0.6226839 7 3 C7 4.32 7 5.64 7 7 C4.69 7 2.38 7 0 7 C0 6.67 0 6.34 0 6 C1.98 6 3.96 6 6 6 C4.87465895 4.64381501 4.87465895 4.64381501 1.9375 4.9375 C0.968125 4.958125 -0.00125 4.97875 -1 5 C-1.33 4.01 -1.66 3.02 -2 2 C-1.34 1.34 -0.68 0.68 0 0 Z " fill="#676767" transform="translate(284,138)"/>
<path d="M0 0 C0.99 0.66 1.98 1.32 3 2 C2.25 6.75 2.25 6.75 0 9 C-1.32 9 -2.64 9 -4 9 C-4.33 10.32 -4.66 11.64 -5 13 C-5.125 8.25 -5.125 8.25 -4 6 C-3.01 5.67 -2.02 5.34 -1 5 C-1.33 3.68 -1.66 2.36 -2 1 C-1.34 0.67 -0.68 0.34 0 0 Z " fill="#5D5D5D" transform="translate(353,136)"/>
<path d="M0 0 C0.33 0.66 0.66 1.32 1 2 C-0.25 3.5 -0.25 3.5 -2 5 C-3.32 5 -4.64 5 -6 5 C-7.68698082 5.61344757 -9.35965807 6.27095914 -11 7 C-11.66 6.34 -12.32 5.68 -13 5 C-12.67 4.01 -12.34 3.02 -12 2 C-11.21753906 1.93941406 -10.43507812 1.87882812 -9.62890625 1.81640625 C-8.61699219 1.73261719 -7.60507813 1.64882812 -6.5625 1.5625 C-5.55316406 1.48128906 -4.54382813 1.40007812 -3.50390625 1.31640625 C-1.06359221 1.26788532 -1.06359221 1.26788532 0 0 Z " fill="#202020" transform="translate(217,80)"/>
<path d="M0 0 C4 1 4 1 5 2 C5.07179964 3.51928038 5.08392007 5.04167482 5.0625 6.5625 C5.05347656 7.38878906 5.04445313 8.21507812 5.03515625 9.06640625 C5.01775391 10.02353516 5.01775391 10.02353516 5 11 C4.01 11 3.02 11 2 11 C1.34 7.37 0.68 3.74 0 0 Z " fill="#555555" transform="translate(35,138)"/>
<path d="M0 0 C0.33 0.99 0.66 1.98 1 3 C-0.32 3.33 -1.64 3.66 -3 4 C-2.01 4 -1.02 4 0 4 C0 4.99 0 5.98 0 7 C-2.91482778 7.80967438 -4.46113217 8.21845993 -7.3125 7.0625 C-7.869375 6.711875 -8.42625 6.36125 -9 6 C-8.34 5.67 -7.68 5.34 -7 5 C-7 4.01 -7 3.02 -7 2 C-4.69 2 -2.38 2 0 2 C0 1.34 0 0.68 0 0 Z " fill="#797979" transform="translate(107,142)"/>
<path d="M0 0 C0.66 0.33 1.32 0.66 2 1 C1.01 3.97 0.02 6.94 -1 10 C-1.99 9.01 -2.98 8.02 -4 7 C-4.66 7 -5.32 7 -6 7 C-6 5 -6 5 -4 3 C-2.67607028 1.98758315 -1.34400833 0.98560611 0 0 Z " fill="#2E2E2E" transform="translate(316,65)"/>
<path d="M0 0 C1.32 0 2.64 0 4 0 C4.66 1.32 5.32 2.64 6 4 C5.35546875 4.22429687 4.7109375 4.44859375 4.046875 4.6796875 C1.75611148 5.82889456 1.75611148 5.82889456 1.390625 8.3828125 C1.34421875 9.28773437 1.2978125 10.19265625 1.25 11.125 C1.19328125 12.03507812 1.1365625 12.94515625 1.078125 13.8828125 C1.03945313 14.93082031 1.03945313 14.93082031 1 16 C0.67 16 0.34 16 0 16 C0 10.72 0 5.44 0 0 Z " fill="#3F3F3F" transform="translate(276,66)"/>
<path d="M0 0 C0.99 0.33 1.98 0.66 3 1 C2.67 2.65 2.34 4.3 2 6 C-0.60582371 6.93065133 -1.64198224 7.14917407 -4.25 6.0625 C-4.8275 5.711875 -5.405 5.36125 -6 5 C-5.67 4.01 -5.34 3.02 -5 2 C-3.02 2.495 -3.02 2.495 -1 3 C-0.67 2.01 -0.34 1.02 0 0 Z " fill="#6C6C6B" transform="translate(297,143)"/>
<path d="M0 0 C0.66 0.99 1.32 1.98 2 3 C-0.64738916 4.4606285 -1.89448334 5 -5 5 C-5 5.66 -5 6.32 -5 7 C-5.66 7 -6.32 7 -7 7 C-7.33 8.32 -7.66 9.64 -8 11 C-8 8.36 -8 5.72 -8 3 C-6.865625 2.690625 -5.73125 2.38125 -4.5625 2.0625 C-1.21224901 1.37075469 -1.21224901 1.37075469 0 0 Z " fill="#2E2E2E" transform="translate(201,71)"/>
<path d="M0 0 C2.00378112 1.65529745 2.94765447 2.86165825 3.875 5.3125 C4.04103779 8.88231246 2.76982962 10.95589306 1 14 C0.67 13.01 0.34 12.02 0 11 C-0.66 10.67 -1.32 10.34 -2 10 C-0.68 9.67 0.64 9.34 2 9 C2 8.34 2 7.68 2 7 C1.01 6.67 0.02 6.34 -1 6 C-0.67 4.02 -0.34 2.04 0 0 Z " fill="#525252" transform="translate(142,66)"/>
<path d="M0 0 C7.75 0.75 7.75 0.75 10 3 C10 4.32 10 5.64 10 7 C8.35 6.67 6.7 6.34 5 6 C4.87625 5.071875 4.87625 5.071875 4.75 4.125 C4.18741541 1.81562433 4.18741541 1.81562433 1.9375 0.75 C1.298125 0.5025 0.65875 0.255 0 0 Z " fill="#2DBED6" transform="translate(78,52)"/>
<path d="M0 0 C0.66 0.33 1.32 0.66 2 1 C2.625 3.0625 2.625 3.0625 3 5 C2.34 5 1.68 5 1 5 C1 7.97 1 10.94 1 14 C0.34 14 -0.32 14 -1 14 C-1.02685938 11.85423363 -1.04633088 9.70837355 -1.0625 7.5625 C-1.07410156 6.36753906 -1.08570313 5.17257813 -1.09765625 3.94140625 C-1 1 -1 1 0 0 Z " fill="#232323" transform="translate(223,135)"/>
<path d="M0 0 C0.66 0.33 1.32 0.66 2 1 C2.33926947 3.33247761 2.67240066 5.66585471 3 8 C3.66 8.66 4.32 9.32 5 10 C3.68 10.33 2.36 10.66 1 11 C-1.43769218 7.34346173 -1.23944439 5.30999899 -1 1 C-0.67 0.67 -0.34 0.34 0 0 Z " fill="#454545" transform="translate(263,138)"/>
<path d="M0 0 C1.65 0 3.3 0 5 0 C5.98120464 3.05263664 5.98120464 4.94736336 5 8 C4.01 7.67 3.02 7.34 2 7 C0.8125 3.4375 0.8125 3.4375 0 0 Z " fill="#525252" transform="translate(296,71)"/>
<path d="M0 0 C0.33 0.99 0.66 1.98 1 3 C-0.32 2.67 -1.64 2.34 -3 2 C-3 2.66 -3 3.32 -3 4 C-5.31 4.33 -7.62 4.66 -10 5 C-7.62417533 -0.26075462 -5.61350876 -0.1220328 0 0 Z " fill="#3F3F3F" transform="translate(141,65)"/>
<path d="M0 0 C0.763125 0.20625 1.52625 0.4125 2.3125 0.625 C1.9825 1.945 1.6525 3.265 1.3125 4.625 C0.36375 4.563125 -0.585 4.50125 -1.5625 4.4375 C-3.109375 4.5303125 -3.109375 4.5303125 -4.6875 4.625 C-5.3475 5.615 -6.0075 6.605 -6.6875 7.625 C-6.375 4.75 -6.375 4.75 -5.6875 1.625 C-2.6875 -0.375 -2.6875 -0.375 0 0 Z " fill="#757575" transform="translate(66.6875,138.375)"/>
<path d="M0 0 C0.763125 0.20625 1.52625 0.4125 2.3125 0.625 C1.9825 1.945 1.6525 3.265 1.3125 4.625 C0.36375 4.563125 -0.585 4.50125 -1.5625 4.4375 C-3.109375 4.5303125 -3.109375 4.5303125 -4.6875 4.625 C-5.3475 5.615 -6.0075 6.605 -6.6875 7.625 C-6.375 4.75 -6.375 4.75 -5.6875 1.625 C-2.6875 -0.375 -2.6875 -0.375 0 0 Z " fill="#747474" transform="translate(47.6875,138.375)"/>
<path d="M0 0 C2.69082872 0.17635452 5.32851446 0.61835921 8 1 C7.34 1.66 6.68 2.32 6 3 C4.68 3 3.36 3 2 3 C2 3.99 2 4.98 2 6 C0.68 6 -0.64 6 -2 6 C-1.125 1.125 -1.125 1.125 0 0 Z " fill="#F4F4F4" transform="translate(11,19)"/>
<path d="M0 0 C0.99 0 1.98 0 3 0 C3.29296875 6.0546875 3.29296875 6.0546875 3 8 C2.01 8.66 1.02 9.32 0 10 C-0.66 9.34 -1.32 8.68 -2 8 C-1.67 7.67 -1.34 7.34 -1 7 C-0.63239269 4.67182036 -0.29758419 2.3381615 0 0 Z " fill="#484848" transform="translate(242,139)"/>
<path d="M0 0 C0.33 0.66 0.66 1.32 1 2 C3.32156597 2.40729228 5.6568787 2.74438677 8 3 C5.36095629 4.41377341 2.92879371 5.37240135 0 6 C-0.33 5.01 -0.66 4.02 -1 3 C-2.98 3.33 -4.96 3.66 -7 4 C-2.25 0 -2.25 0 0 0 Z " fill="#62CBDA" transform="translate(52,47)"/>
<path d="M0 0 C1.65 0.33 3.3 0.66 5 1 C5 2.32 5 3.64 5 5 C0.545 5.495 0.545 5.495 -4 6 C-4 5.01 -4 4.02 -4 3 C-2.02 3 -0.04 3 2 3 C2 2.34 2 1.68 2 1 C1.34 0.67 0.68 0.34 0 0 Z " fill="#303030" transform="translate(210,140)"/>
<path d="M0 0 C0.99 0 1.98 0 3 0 C3 2.64 3 5.28 3 8 C1.68 8.33 0.36 8.66 -1 9 C-0.67 6.03 -0.34 3.06 0 0 Z " fill="#474747" transform="translate(151,139)"/>
<path d="M0 0 C0.66 0 1.32 0 2 0 C3.32229189 2.64458379 3.09677194 4.67761301 3.0625 7.625 C3.05347656 8.62789062 3.04445312 9.63078125 3.03515625 10.6640625 C3.02355469 11.43492187 3.01195312 12.20578125 3 13 C2.690625 12.360625 2.38125 11.72125 2.0625 11.0625 C1.1654837 9.06389179 1.1654837 9.06389179 0 8 C-0.14115161 5.32941149 -0.04247107 2.67567762 0 0 Z " fill="#717171" transform="translate(231,135)"/>
<path d="M0 0 C4 5 4 5 5 7 C4.01 7.33 3.02 7.66 2 8 C1.67 10.64 1.34 13.28 1 16 C0.67 16 0.34 16 0 16 C0 10.72 0 5.44 0 0 Z " fill="#575757" transform="translate(238,66)"/>
<path d="M0 0 C0.99 0.33 1.98 0.66 3 1 C3 2.32 3 3.64 3 5 C0.36 5.33 -2.28 5.66 -5 6 C-5.33 4.68 -5.66 3.36 -6 2 C-3.03 2.495 -3.03 2.495 0 3 C0 2.01 0 1.02 0 0 Z " fill="#393939" transform="translate(392,140)"/>
<path d="M0 0 C0.33 0.66 0.66 1.32 1 2 C1.66 2 2.32 2 3 2 C3 2.66 3 3.32 3 4 C0.29120665 5.35439668 -2.00933268 5.06501451 -5 5 C-5 4.01 -5 3.02 -5 2 C-3.35 1.34 -1.7 0.68 0 0 Z " fill="#676767" transform="translate(123,148)"/>
<path d="M0 0 C0 0.99 0 1.98 0 3 C-2.25 3.75 -2.25 3.75 -5 4 C-7.3125 2.0625 -7.3125 2.0625 -9 0 C-5.93109813 -1.53445094 -3.29905734 -0.54984289 0 0 Z " fill="#595959" transform="translate(214,146)"/>
<path d="M0 0 C0.99 0 1.98 0 3 0 C3.33 2.97 3.66 5.94 4 9 C3.34 8.34 2.68 7.68 2 7 C1.01 7 0.02 7 -1 7 C-0.67 4.69 -0.34 2.38 0 0 Z " fill="#727272" transform="translate(123,139)"/>
<path d="M0 0 C1.32 0 2.64 0 4 0 C4.125 5.75 4.125 5.75 3 8 C2.01 8 1.02 8 0 8 C0 5.36 0 2.72 0 0 Z " fill="#313131" transform="translate(190,140)"/>
<path d="M0 0 C-0.33 0.99 -0.66 1.98 -1 3 C-3.3125 3.6875 -3.3125 3.6875 -6 4 C-7.8125 2.5625 -7.8125 2.5625 -9 1 C-6.04335481 -0.4783226 -3.25770263 -0.06032783 0 0 Z " fill="#6E6E6E" transform="translate(339,146)"/>
<path d="M0 0 C2 0.8125 2 0.8125 3.25 2.875 C3.4975 3.514375 3.745 4.15375 4 4.8125 C1.69 4.8125 -0.62 4.8125 -3 4.8125 C-3.33 3.4925 -3.66 2.1725 -4 0.8125 C-2 -0.1875 -2 -0.1875 0 0 Z " fill="#717171" transform="translate(335,138.1875)"/>
<path d="M0 0 C0.33 0 0.66 0 1 0 C1.33 1.65 1.66 3.3 2 5 C2.99 5.33 3.98 5.66 5 6 C5 6.66 5 7.32 5 8 C5.66 8 6.32 8 7 8 C7 8.66 7 9.32 7 10 C4.69 9.34 2.38 8.68 0 8 C0 5.36 0 2.72 0 0 Z " fill="#9A9A9A" transform="translate(194,140)"/>
<path d="M0 0 C0 0.99 0 1.98 0 3 C-5.75 4.125 -5.75 4.125 -8 3 C-7.67 2.01 -7.34 1.02 -7 0 C-4.3333581 -1.33332095 -2.83319697 -0.67102033 0 0 Z " fill="#5C5C5C" transform="translate(172,139)"/>
<path d="M0 0 C3.465 1.485 3.465 1.485 7 3 C6.67 3.66 6.34 4.32 6 5 C3.69 4.67 1.38 4.34 -1 4 C-0.67 2.68 -0.34 1.36 0 0 Z " fill="#262626" transform="translate(154,74)"/>
<path d="M0 0 C0.66 0 1.32 0 2 0 C2 3.63 2 7.26 2 11 C1.01 10.67 0.02 10.34 -1 10 C-0.67 9.01 -0.34 8.02 0 7 C-0.165 6.34 -0.33 5.68 -0.5 5 C-1 3 -1 3 0 0 Z " fill="#2F2F2F" transform="translate(370,138)"/>
<path d="M0 0 C1.65 0 3.3 0 5 0 C4.01 0.495 4.01 0.495 3 1 C2.53476937 2.89533342 2.53476937 2.89533342 2.375 5.0625 C2.25125 6.361875 2.1275 7.66125 2 9 C1.34 9 0.68 9 0 9 C0 6.03 0 3.06 0 0 Z " fill="#1B1B1B" transform="translate(247,140)"/>
<path d="M0 0 C0.66 0.33 1.32 0.66 2 1 C2 3.64 2 6.28 2 9 C1.34 9 0.68 9 0 9 C-0.66 6.69 -1.32 4.38 -2 2 C-1.34 1.34 -0.68 0.68 0 0 Z " fill="#171717" transform="translate(343,64)"/>
<path d="M0 0 C1.32 0 2.64 0 4 0 C3.67 0.99 3.34 1.98 3 3 C2.67 2.67 2.34 2.34 2 2 C1.67 3.32 1.34 4.64 1 6 C-0.32 6 -1.64 6 -3 6 C-1.125 1.125 -1.125 1.125 0 0 Z " fill="#11BFD9" transform="translate(81,93)"/>
<path d="M0 0 C0.99 0 1.98 0 3 0 C3 0.66 3 1.32 3 2 C3.66 2 4.32 2 5 2 C5.66 3.98 6.32 5.96 7 8 C3.28631113 6.76210371 2.22645819 5.14775123 0 2 C0 1.34 0 0.68 0 0 Z " fill="#61CCD9" transform="translate(38,91)"/>
<path d="M0 0 C3 1 3 1 3.94921875 2.84765625 C4.19285156 3.57855469 4.43648437 4.30945313 4.6875 5.0625 C4.93886719 5.79597656 5.19023438 6.52945313 5.44921875 7.28515625 C5.63097656 7.85105469 5.81273437 8.41695312 6 9 C5.01 9 4.02 9 3 9 C0.87491756 5.81237635 0.4979837 3.73487777 0 0 Z " fill="#12BDDE" transform="translate(36,81)"/>
<path d="M0 0 C1.65 0 3.3 0 5 0 C5 0.99 5 1.98 5 3 C6.65 3.33 8.3 3.66 10 4 C10 4.33 10 4.66 10 5 C3.51707705 5.3669579 3.51707705 5.3669579 1.0625 3.625 C0 2 0 2 0 0 Z " fill="#4A4A4A" transform="translate(131,76)"/>
<path d="M0 0 C0.99 0.33 1.98 0.66 3 1 C3 3.64 3 6.28 3 9 C0.20127563 6.47211993 -1.45773019 4.79588866 -2 1 C-1.34 0.67 -0.68 0.34 0 0 Z " fill="#8E8E8E" transform="translate(248,73)"/>
<path d="M0 0 C0.99 0.33 1.98 0.66 3 1 C2.67 2.98 2.34 4.96 2 7 C1.01 7 0.02 7 -1 7 C-1.33 6.34 -1.66 5.68 -2 5 C-1.0625 2.375 -1.0625 2.375 0 0 Z " fill="#6C6C6C" transform="translate(27,135)"/>
<path d="M0 0 C2.01136276 2.55991624 3.62845496 5.04590299 5 8 C3.125 7.75 3.125 7.75 1 7 C-0.3125 5.125 -0.3125 5.125 -1 3 C-0.67 2.01 -0.34 1.02 0 0 Z " fill="#494949" transform="translate(336,74)"/>
<path d="M0 0 C0.28875 0.639375 0.5775 1.27875 0.875 1.9375 C1.82823451 4.15206079 1.82823451 4.15206079 4 5 C1.69 5.66 -0.62 6.32 -3 7 C-3.33 6.01 -3.66 5.02 -4 4 C-2.68 3.67 -1.36 3.34 0 3 C0 2.01 0 1.02 0 0 Z " fill="#494949" transform="translate(341,69)"/>
<path d="M0 0 C0.33 1.32 0.66 2.64 1 4 C-0.98 4.99 -0.98 4.99 -3 6 C-3.66 4.35 -4.32 2.7 -5 1 C-3.35 0.67 -1.7 0.34 0 0 Z " fill="#2B2B2B" transform="translate(248,69)"/>
<path d="M0 0 C2.97 0.495 2.97 0.495 6 1 C6.12375 1.639375 6.2475 2.27875 6.375 2.9375 C6.684375 3.9584375 6.684375 3.9584375 7 5 C7.66 5.33 8.32 5.66 9 6 C4.58763974 6 3.21615077 3.9302707 0 1 C0 0.67 0 0.34 0 0 Z " fill="#6ED0DB" transform="translate(76,53)"/>
<path d="M0 0 C2.97 0.99 5.94 1.98 9 3 C9 3.33 9 3.66 9 4 C6.36 4.33 3.72 4.66 1 5 C0.67 3.35 0.34 1.7 0 0 Z " fill="#59CBDC" transform="translate(50,95)"/>
<path d="M0 0 C0.66 0.33 1.32 0.66 2 1 C2.625 3.0625 2.625 3.0625 3 5 C2.01 5.495 2.01 5.495 1 6 C0.34 5.67 -0.32 5.34 -1 5 C-1 4.34 -1 3.68 -1 3 C-1.99 3.33 -2.98 3.66 -4 4 C-3.67 3.01 -3.34 2.02 -3 1 C-2.01 1.33 -1.02 1.66 0 2 C0 1.34 0 0.68 0 0 Z " fill="#2B2B2B" transform="translate(161,79)"/>
<path d="M0 0 C0.33 0 0.66 0 1 0 C1 2.31 1 4.62 1 7 C-0.32 7.33 -1.64 7.66 -3 8 C-1.125 1.125 -1.125 1.125 0 0 Z " fill="#3D3D3D" transform="translate(305,69)"/>
<path d="M0 0 C0 3 0 3 0 3 Z M-6 2 C-3.03 2.495 -3.03 2.495 0 3 C0 3.33 0 3.66 0 4 C-1.65 4 -3.3 4 -5 4 C-5 4.99 -5 5.98 -5 7 C-5.66 7 -6.32 7 -7 7 C-6.67 5.35 -6.34 3.7 -6 2 Z " fill="#080808" transform="translate(68,140)"/>
<path d="M0 0 C0 3 0 3 0 3 Z M-6 2 C-3.03 2.495 -3.03 2.495 0 3 C0 3.33 0 3.66 0 4 C-1.65 4 -3.3 4 -5 4 C-5 4.99 -5 5.98 -5 7 C-5.66 7 -6.32 7 -7 7 C-6.67 5.35 -6.34 3.7 -6 2 Z " fill="#070707" transform="translate(49,140)"/>
<path d="M0 0 C1.94268841 2.91403262 3.46395304 5.85808576 5 9 C3.0625 8.625 3.0625 8.625 1 8 C-0.35439668 5.29120665 -0.06501451 2.99066732 0 0 Z " fill="#68CDE0" transform="translate(40,81)"/>
<path d="M0 0 C2.97 0.495 2.97 0.495 6 1 C5.34 2.32 4.68 3.64 4 5 C2.68 4.67 1.36 4.34 0 4 C0 2.68 0 1.36 0 0 Z " fill="#1DB9CE" transform="translate(72,47)"/>
<path d="M0 0 C0 0.99 0 1.98 0 3 C-1.65 3.33 -3.3 3.66 -5 4 C-5.33 3.01 -5.66 2.02 -6 1 C-3 0 -3 0 0 0 Z " fill="#5B5B5B" transform="translate(107,146)"/>
<path d="M0 0 C1.0625 1.8125 1.0625 1.8125 2 4 C1.67 4.99 1.34 5.98 1 7 C-1.0625 7.6875 -1.0625 7.6875 -3 8 C-3.33 7.01 -3.66 6.02 -4 5 C-3.01 4.67 -2.02 4.34 -1 4 C-0.26676204 1.98491642 -0.26676204 1.98491642 0 0 Z " fill="#4A4A4A" transform="translate(369,142)"/>
<path d="M0 0 C1.67542976 0.28604898 3.34385343 0.61781233 5 1 C5.33 1.99 5.66 2.98 6 4 C1.25 3.25 1.25 3.25 -1 1 C-0.67 0.67 -0.34 0.34 0 0 Z " fill="#6D6D6D" transform="translate(294,138)"/>
<path d="M0 0 C2.31 0.33 4.62 0.66 7 1 C7.33 1.99 7.66 2.98 8 4 C5.125 3.6875 5.125 3.6875 2 3 C1.34 2.01 0.68 1.02 0 0 Z " fill="#040404" transform="translate(367,82)"/>
<path d="M0 0 C1.65 0 3.3 0 5 0 C5 1.32 5 2.64 5 4 C4.34 4.66 3.68 5.32 3 6 C0 2.25 0 2.25 0 0 Z " fill="#414141" transform="translate(156,68)"/>
<path d="M0 0 C0.99 0.33 1.98 0.66 3 1 C3.33 2.98 3.66 4.96 4 7 C3.34 7 2.68 7 2 7 C1.34 4.69 0.68 2.38 0 0 Z " fill="#14BED9" transform="translate(87,61)"/>
<path d="M0 0 C0.99 0 1.98 0 3 0 C3 0.99 3 1.98 3 3 C2.01 3 1.02 3 0 3 C0 2.01 0 1.02 0 0 Z " fill="#6A6A6A" transform="translate(404,146)"/>
<path d="" fill="#FFFFFF" transform="translate(0,0)"/>
<path d="" fill="#FFFFFF" transform="translate(0,0)"/>
<path d="" fill="#FFFFFF" transform="translate(0,0)"/>
</svg>
